<?xml version="1.0" encoding="UTF-8"?>
<svg width="225px" height="136px" viewBox="0 0 225 136" version="1.1" xmlns="http://www.w3.org/2000/svg" xmlns:xlink="http://www.w3.org/1999/xlink">
    <!-- Generator: Sketch 57.1 (83088) - https://sketch.com -->
    <title>Brand / Logo Full</title>
    <desc>Created with Sketch.</desc>
    <g id="Brand-/-Logo-Full" stroke="none" stroke-width="1" fill="none" fill-rule="evenodd">
        <g id="Black-logo---no-background" fill="#19213A" fill-rule="nonzero">
            <g id="SvgjsG4342" transform="translate(0.039664, 0.013170)">
                <path d="M40.1126802,15.9504941 C39.7188408,15.9504941 38.6217169,17.2164063 36.8213084,19.7482308 C34.7958488,22.5613691 32.7985206,25.6558212 30.8293238,29.0315871 C28.4662877,33.138769 26.6377478,36.9365057 25.3437042,40.4247972 C23.2619818,45.7134972 21.6303616,50.9600001 20.4488435,56.1643059 C19.2673255,61.3686118 18.7609606,65.7149104 18.9297489,69.2032019 C18.9860116,70.2721945 19.2391941,71.2849242 19.6892962,72.2413913 C20.0831356,72.9728072 20.5613691,73.619829 21.1239967,74.1824567 C21.5740989,74.6325588 22.0523324,75.0263982 22.5586973,75.3639748 L23.1494563,75.7015514 L22.980668,73.5073035 C22.8681425,71.706895 22.9244052,70.0049463 23.1494563,68.4014575 C23.3745074,66.7979687 23.8246095,65.0678886 24.4997627,63.2112173 L25.3437042,60.8481812 L28.8038643,60.173028 C31.6732653,59.7229259 34.4582722,59.3572179 37.158885,59.0759041 C40.9847531,58.6258019 44.4167818,58.4288823 47.4549711,58.485145 C51.2808392,58.5414078 54.3752913,58.9352472 56.7383275,59.6666631 C59.495203,60.5668674 61.2112173,61.9171737 61.8863705,63.7175822 C62.0551588,64.0551588 61.8019764,64.7584434 61.1268232,65.827436 C60.3954072,67.0652168 59.3264147,68.3029977 57.9198456,69.5407785 C56.2319626,71.1723987 54.206503,72.6352306 51.8434668,73.9292742 C48.9740658,75.5046317 45.7952195,76.7986753 42.306928,77.8114051 C38.2560089,78.9929231 33.8112504,79.7524705 28.9726526,80.0900471 C25.990726,80.3150981 23.2901132,79.9212588 20.8708143,78.908529 C18.9578803,78.177113 17.2137345,77.0799891 15.6383771,75.6171572 C14.7944356,74.8294785 13.8379686,73.7323545 12.768976,72.3257854 C12.3751367,71.7631577 12.0938228,71.3974498 11.9250345,71.2286615 C11.7562462,71.0598732 11.6155893,71.0598732 11.5030638,71.2286615 C11.1654872,71.9038147 10.9966989,72.9165444 10.9966989,74.2668508 C11.0529617,75.8422083 11.4186696,77.3894343 12.0938228,78.908529 C12.9377643,80.7652003 14.2318079,82.3124263 15.9759537,83.5502072 C18.0014132,85.1255646 20.5895005,86.1945572 23.7402153,86.7571848 C27.7348717,87.4886008 32.2921557,87.3198125 37.4120674,86.2508199 C42.3631908,85.2943529 47.0611318,83.6627327 51.5058903,81.3559593 C56.119437,78.9929231 59.7765168,76.2923104 62.4771296,73.254121 C65.3465306,69.9908806 66.7530998,66.6995088 66.696837,63.3800056 C66.4717859,59.4978748 64.8120344,56.6566051 61.7175822,54.8561966 C59.0732322,53.3933647 54.937919,52.5212919 49.3116424,52.239978 L50.8307371,51.5648248 C52.1247807,50.9459344 53.4188243,50.2707812 54.7128679,49.5393653 C56.5695392,48.5266355 58.3699477,47.4576429 60.1140934,46.3323876 C62.2520785,44.9258185 64.2212753,43.4629866 66.0216838,41.9438919 C68.1596689,40.0872206 70.0163402,38.2305493 71.5916976,36.3738781 C73.3921061,34.1796302 74.7986753,31.957251 75.8114051,29.7067403 C76.9929231,27.1749159 77.6680763,24.61496 77.8368646,22.0268728 C78.0056529,19.2137345 77.6118136,16.3443335 76.6553466,13.4186696 C75.3050402,9.3677505 72.7310186,6.21703562 68.933282,3.96652499 C65.1355453,1.71601436 60.3954072,0.618890424 54.7128679,0.675153189 C48.692752,0.787678721 42.081877,2.25051063 34.880243,5.06364892 C29.1977036,7.31415955 23.6558212,10.4086117 18.2545957,14.3470053 C13.4722606,17.779034 9.42134145,21.3517196 6.10183827,25.0650622 C3.00738615,28.6096164 1.26324042,31.4508861 0.869401055,33.5888712 C0.53182446,35.558068 0.363036163,37.2459509 0.363036163,38.6525201 C0.306773397,39.8340382 0.391167545,40.7623738 0.616218609,41.437527 C0.785006906,41.9438919 0.981926586,42.2533371 1.20697765,42.3658626 C1.43202871,42.4783882 1.60081701,42.4221254 1.71334254,42.1970743 C2.33223296,40.7905052 3.57001381,38.8775712 5.42668508,36.4582722 C8.12729784,32.913718 11.3061441,29.4816893 14.9632239,26.1621861 C19.8580845,21.8299531 25.2874414,17.9478223 31.2512946,14.5157936 C35.5835275,12.0402319 40.2814685,10.1554292 45.3451174,8.86138561 C50.0711897,7.62360476 54.572211,7.0609771 58.8481812,7.17350264 C63.1241514,7.28602817 66.5561801,7.98931274 69.1442673,9.28335635 C71.9011428,10.6336627 73.3921061,12.4622026 73.6171572,14.768976 C73.898471,17.413326 73.4483689,20.057676 72.2668508,22.702026 C71.254121,25.1213249 69.6506322,27.5124925 67.4563844,29.8755286 C65.5434503,32.0135137 63.1522828,34.0952361 60.2828817,36.1206956 C57.80732,37.9211041 54.9941817,39.6933813 51.8434668,41.437527 C49.1991169,42.9003589 46.3578472,44.306928 43.3196578,45.6572344 C40.9003589,46.7824897 38.3966658,47.8233509 35.8085786,48.7798179 C34.0081701,49.5112339 32.235893,50.1582557 30.4917472,50.7208833 L28.4662877,51.3960365 L29.7321999,48.5266355 C30.7449297,46.1635993 31.8139222,43.8849573 32.9391775,41.6907094 C34.4582722,38.5962573 35.9211041,35.8393818 37.3276733,33.4200829 C38.9030307,30.8882584 41.1535414,27.9063318 44.0792052,24.4743031 C45.2044605,23.1802595 45.7670881,22.4488435 45.7670881,22.2800552 C45.8796137,21.7174276 45.5982998,20.9297489 44.9231467,19.9170191 C44.2479935,18.9042893 43.4321834,17.9900194 42.4757163,17.1742093 C41.5192493,16.3583991 40.7315706,15.9504941 40.1126802,15.9504941 L40.1126802,15.9504941 Z M93.2809938,68.0216838 C94.3499864,67.9654211 95.6158986,67.2621365 97.0787305,65.9118301 C98.2602486,64.8428376 99.5261608,63.3518743 100.876467,61.4389402 C101.832934,60.0886338 102.76127,58.6258019 103.661474,57.0504445 L104.842992,55.0249849 L104.167839,57.3880211 C103.605211,59.3009551 102.95819,61.1013636 102.226774,62.7892466 C101.270307,65.09602 100.229445,66.9808227 99.1041901,68.4436546 C97.7538837,70.2440631 96.3473146,71.341187 94.8844827,71.7350264 C93.7592274,72.0163402 92.6761691,71.9741431 91.6353079,71.6084351 C90.5944468,71.2427272 89.4551258,70.4691141 88.2173449,69.2875961 C87.4296662,68.4999173 86.8951699,67.1214796 86.6138561,65.1522828 C86.4450678,64.1958158 86.388805,63.183086 86.4450678,62.1140934 L86.4450678,62.0296993 C86.388805,62.1984876 85.798046,63.0424291 84.6727907,64.5615237 C83.3787471,66.3056695 82.197229,67.7966328 81.1282364,69.0344136 C79.7216673,70.6660338 78.7370689,71.5662381 78.1744412,71.7350264 C77.2179742,71.9600774 76.0927189,71.9038147 74.7986753,71.5662381 C73.2233178,71.1723987 71.9011428,70.4128514 70.8321503,69.2875961 C70.4383109,68.8374939 70.2132599,67.7966328 70.1569971,66.1650126 C70.1007343,64.5333923 70.2413913,62.6485897 70.5789679,60.5106046 C70.9165444,58.1475684 71.4510407,55.8689264 72.1824567,53.6746786 C72.9701354,51.2553796 73.9828652,48.7798179 75.220646,46.2479935 C76.4021641,43.9974828 77.5696165,42.0564174 78.7230032,40.4247972 C79.8763899,38.793177 80.7906598,37.8085786 81.465813,37.471002 C82.3660173,37.0771626 83.2380902,36.9365057 84.0820316,37.0490313 C84.7571848,37.1615568 85.3760753,37.3866079 85.9387029,37.7241845 C86.388805,38.0054983 86.7826444,38.3430749 87.120221,38.7369142 L87.4577976,39.2432791 L85.9387029,41.8594977 C84.6446593,43.9974828 83.4631412,46.1073366 82.3941487,48.1890589 C80.9313168,51.1147227 79.7497987,53.7309413 78.8495944,56.0377147 C78.1181785,57.894386 77.499288,59.80732 76.9929231,61.7765168 C76.542821,63.6331881 76.2755729,65.1663485 76.1911787,66.3759979 C76.1067846,67.5856474 76.2333758,68.1342094 76.5709524,68.0216838 C77.864996,67.6841072 79.3559593,66.1650126 81.0438423,63.4643998 C82.0565721,61.8890424 83.6319295,58.9352472 85.7699146,54.6030142 C87.7391114,50.7208833 89.2582061,47.8514823 90.3271986,45.994811 C92.0713444,42.9003589 93.731096,40.5091914 95.3064534,38.8213084 C96.0378694,38.0336297 96.8818109,37.6397903 97.8382779,37.6397903 C98.5696938,37.6960531 99.3573725,37.9492355 100.201314,38.3993376 C100.820204,38.793177 101.439095,39.2714105 102.057985,39.8340382 L102.733138,40.5935855 L101.55162,42.7878334 C100.538891,44.5882419 99.610555,46.3886504 98.7666135,48.1890589 C97.5288327,50.7208833 96.4598401,53.0839195 95.5596359,55.2781674 C94.7719571,57.2473642 94.1530667,59.2728237 93.7029646,61.3545461 C93.2528625,63.2112173 92.99968,64.7865748 92.9434172,66.0806184 C92.8871545,67.374662 92.99968,68.0216838 93.2809938,68.0216838 L93.2809938,68.0216838 Z M141.892023,15.8660999 C142.567177,14.403268 143.270461,13.1373558 144.001877,12.0683633 C144.508242,11.3369473 144.986476,10.7461883 145.436578,10.2960861 L145.942943,9.87411539 L144.930213,9.5365388 C144.086271,9.25522497 143.270461,9.11456806 142.482783,9.11456806 C141.301264,9.11456806 140.260403,9.3677505 139.360199,9.87411539 C138.122418,10.4930058 137.109688,11.4776042 136.32201,12.8279106 C134.746652,15.4722606 132.496142,20.2827271 129.570478,27.25931 C127.601281,31.9853823 125.857135,36.4020095 124.338041,40.5091914 C122.650158,39.383936 120.990406,38.5681259 119.358786,38.061761 C116.883224,37.3866079 114.942159,37.6679217 113.53559,38.9057025 C110.89124,41.2124759 108.584466,44.081877 106.615269,47.5139057 C104.983649,50.327044 103.661474,53.4214961 102.648744,56.7972621 C101.804803,59.4978748 101.242175,62.1140934 100.960861,64.6459179 C100.73581,66.783903 100.73581,68.1623407 100.960861,68.7812312 C101.410963,69.7939609 102.536219,70.6379024 104.336627,71.3130556 C105.911985,71.8756833 107.262291,72.072603 108.387546,71.9038147 C108.950174,71.7912891 110.047298,70.7785593 111.678918,68.8656253 C112.860436,67.4590562 114.210743,65.686779 115.729837,63.5487939 L117.755297,60.6793929 L117.41772,62.5360642 C117.248932,64.0551588 117.136407,65.3773338 117.080144,66.5025891 C117.023881,68.0216838 117.164538,69.0906764 117.502115,69.7095668 C117.952217,70.4409828 118.542976,71.0036104 119.274392,71.3974498 C119.837019,71.6787636 120.484041,71.8194205 121.215457,71.8194205 C121.721822,71.8194205 122.256318,71.7631577 122.818946,71.6506322 L123.494099,71.4818439 L124.169252,71.1442673 C124.788143,70.8629535 125.378902,70.4128514 125.941529,69.7939609 C126.841734,68.8937567 127.685675,67.7685014 128.473354,66.418195 C129.486084,64.5615237 130.526945,62.3391445 131.595937,59.7510573 C132.383616,57.9506487 133.143163,56.0377147 133.874579,54.0122551 L134.718521,51.5648248 L133.874579,53.0839195 C133.199426,54.3217004 132.411747,55.5876126 131.511543,56.8816562 C130.273762,58.7383275 128.979719,60.4824732 127.629412,62.1140934 C126.391632,63.5769253 125.181982,64.6459179 124.000464,65.3210711 C125.125719,59.5260062 127.601281,51.4804307 131.427149,41.1843445 C134.690389,32.4636159 138.178681,24.024201 141.892023,15.8660999 L141.892023,15.8660999 Z M117.41772,43.6317749 C118.205399,42.7878334 118.964946,42.2533371 119.696362,42.028286 C120.315253,41.8594977 120.934143,41.8594977 121.553034,42.028286 C121.946873,42.1970743 122.312581,42.4502568 122.650158,42.7878334 L123.072128,43.2941983 L121.468639,46.5011759 C120.118333,49.0330004 118.768027,51.4522993 117.41772,53.7590727 C115.561049,56.9660503 113.845035,59.6947945 112.269677,61.9453051 C111.369473,63.2393487 110.356743,64.4771296 109.231488,65.6586477 L107.796787,67.0933482 L108.04997,64.730312 C108.387546,62.7611152 108.837649,60.8200498 109.400276,58.9071158 C110.187955,56.1502402 111.144422,53.5902844 112.269677,51.2272482 C113.732509,48.3015844 115.448524,45.76976 117.41772,43.6317749 L117.41772,43.6317749 Z M171.261187,15.8660999 C171.93634,14.403268 172.639625,13.1373558 173.371041,12.0683633 C173.877406,11.3369473 174.355639,10.7461883 174.805741,10.2960861 L175.312106,9.87411539 L174.299377,9.5365388 C173.455435,9.25522497 172.639625,9.11456806 171.851946,9.11456806 C170.670428,9.11456806 169.629567,9.3677505 168.729363,9.87411539 C167.491582,10.4930058 166.478852,11.4776042 165.691173,12.8279106 C164.115816,15.4722606 161.865305,20.2827271 158.939642,27.25931 C156.970445,31.9853823 155.226299,36.4020095 153.707204,40.5091914 C152.019321,39.383936 150.35957,38.5681259 148.72795,38.061761 C146.252388,37.3866079 144.311322,37.6679217 142.904753,38.9057025 C140.260403,41.2124759 137.95363,44.081877 135.984433,47.5139057 C134.352813,50.327044 133.030638,53.4214961 132.017908,56.7972621 C131.173967,59.4978748 130.611339,62.1140934 130.330025,64.6459179 C130.104974,66.783903 130.104974,68.1623407 130.330025,68.7812312 C130.780127,69.7939609 131.905383,70.6379024 133.705791,71.3130556 C135.281148,71.8756833 136.631455,72.072603 137.75671,71.9038147 C138.319338,71.7912891 139.416462,70.7785593 141.048082,68.8656253 C142.2296,67.4590562 143.579906,65.686779 145.099001,63.5487939 L147.124461,60.6793929 L146.786884,62.5360642 C146.618096,64.0551588 146.50557,65.3773338 146.449307,66.5025891 C146.393045,68.0216838 146.533702,69.0906764 146.871278,69.7095668 C147.32138,70.4409828 147.912139,71.0036104 148.643555,71.3974498 C149.206183,71.6787636 149.853205,71.8194205 150.584621,71.8194205 C151.090986,71.8194205 151.625482,71.7631577 152.18811,71.6506322 L152.863263,71.4818439 L153.538416,71.1442673 C154.157306,70.8629535 154.748065,70.4128514 155.310693,69.7939609 C156.210897,68.8937567 157.054839,67.7685014 157.842518,66.418195 C158.855247,64.5615237 159.896109,62.3391445 160.965101,59.7510573 C161.75278,57.9506487 162.512327,56.0377147 163.243743,54.0122551 L164.087685,51.5648248 L163.243743,53.0839195 C162.56859,54.3217004 161.780911,55.5876126 160.880707,56.8816562 C159.642926,58.7383275 158.348882,60.4824732 156.998576,62.1140934 C155.760795,63.5769253 154.551146,64.6459179 153.369628,65.3210711 C154.494883,59.5260062 156.970445,51.4804307 160.796313,41.1843445 C164.059553,32.4636159 167.547845,24.024201 171.261187,15.8660999 L171.261187,15.8660999 Z M146.786884,43.6317749 C147.574563,42.7878334 148.33411,42.2533371 149.065526,42.028286 C149.684417,41.8594977 150.303307,41.8594977 150.922197,42.028286 C151.316037,42.1970743 151.681745,42.4502568 152.019321,42.7878334 L152.441292,43.2941983 L150.837803,46.5011759 C149.487497,49.0330004 148.13719,51.4522993 146.786884,53.7590727 C144.930213,56.9660503 143.214198,59.6947945 141.638841,61.9453051 C140.738637,63.2393487 139.725907,64.4771296 138.600652,65.6586477 L137.165951,67.0933482 L137.419134,64.730312 C137.75671,62.7611152 138.206812,60.8200498 138.76944,58.9071158 C139.557119,56.1502402 140.513586,53.5902844 141.638841,51.2272482 C143.101673,48.3015844 144.817687,45.76976 146.786884,43.6317749 L146.786884,43.6317749 Z M176.240442,37.5553962 C176.071654,37.7804472 175.930997,37.9773669 175.818471,38.1461552 C175.368369,38.8213084 174.805741,39.7777754 174.130588,41.0155563 C172.555231,44.2225339 171.036136,47.9358764 169.573304,52.1555839 C168.448049,55.6438754 167.547845,58.850853 166.872691,61.7765168 C166.253801,64.4771296 166.085013,65.7711732 166.366327,65.6586477 C166.872691,65.5461221 167.997947,64.2239471 169.742093,61.6921227 C170.811085,60.173028 172.667756,57.3317583 175.312106,53.1683137 C178.800398,47.7670881 181.332222,43.9412201 182.90758,41.6907094 C185.55193,37.8648414 187.436732,35.7268563 188.561988,35.2767541 C189.518455,34.826652 190.390528,34.5734696 191.178206,34.5172068 C191.853359,34.5172068 192.47225,34.601601 193.034878,34.7703892 C193.428717,34.9391775 193.766294,35.1360972 194.047607,35.3611483 L194.385184,35.6987249 L193.541242,36.880243 C192.753564,38.1180238 191.740834,39.7215126 190.503053,41.6907094 C187.127287,47.2607233 183.892178,54.4060945 180.797726,63.1268232 C178.43469,69.8783551 176.296705,77.1362519 174.383771,84.9005136 C172.977202,90.6393157 172.020735,95.1403369 171.51437,98.4035773 C171.401844,99.0224678 171.373713,99.7257523 171.429976,100.513431 L171.598764,101.441767 L170.754822,101.526161 C169.967144,101.526161 169.179465,101.441767 168.391786,101.272978 C167.322794,100.991665 166.253801,100.541562 165.184809,99.922672 C164.509655,99.4725699 164.819101,96.1249353 166.113144,89.8797683 C167.013348,85.3787471 168.391786,79.6680763 170.248457,72.7477561 L172.695888,63.7175822 L170.50164,66.5869833 C168.926282,68.6687056 167.688502,70.0471434 166.788297,70.7222966 C166.338195,71.1161359 165.719305,71.4255812 164.931626,71.6506322 C163.975159,71.931946 163.103086,71.9882088 162.315407,71.8194205 C161.35894,71.6506322 160.655656,71.1442673 160.205554,70.3003258 C159.192824,68.4436546 158.967773,65.5179907 159.530401,61.5233344 C160.318079,55.615744 162.934298,48.0765334 167.379056,38.9057025 C167.885421,37.83671 168.644969,37.105294 169.657698,36.7114547 C170.50164,36.4301408 171.486238,36.3457467 172.611494,36.4582722 C173.455435,36.5707978 174.299377,36.7958488 175.143318,37.1334254 L176.240442,37.5553962 Z M195.144731,35.4455424 C195.200994,35.6143307 195.229125,35.783119 195.229125,35.9519073 C195.341651,36.3457467 195.538571,36.6833233 195.819884,36.9646371 C196.607563,37.7523158 199.139388,38.061761 203.415358,37.8929728 C205.89092,37.83671 209.716788,37.5272648 214.892962,36.9646371 C218.324991,36.6270605 220.266056,36.4864036 220.716158,36.5426664 C221.616363,36.5989291 222.37591,37.1615568 222.9948,38.2305493 C223.557428,39.1870164 223.880939,40.2700746 223.965333,41.4797241 C224.049727,42.6893735 223.838742,43.5473807 223.332377,44.0537456 C217.762363,46.8668839 212.529926,50.2145185 207.635065,54.0966493 C204.821927,56.4034227 201.361767,59.6104003 197.254585,63.7175822 L196.157461,64.730312 C197.451505,64.3927354 198.689286,63.9707647 199.870804,63.4643998 C201.446161,62.9017721 203.499752,62.3391445 206.031576,61.7765168 C215.314933,60.2011594 220.772421,62.0578307 222.404041,67.3465306 C222.516567,67.7966328 222.488435,68.3873918 222.319647,69.1188078 C222.150859,69.8502237 222.010202,70.2159317 221.897676,70.2159317 C221.785151,70.2159317 221.616363,69.9627492 221.391312,69.4563844 C220.659896,67.9372897 219.73156,66.8964285 218.606305,66.3338008 C217.874889,65.9399615 216.946553,65.7289761 215.821298,65.7008447 C214.696042,65.6727134 213.964626,65.686779 213.62705,65.7430418 C211.376539,66.0243556 208.985372,66.6995088 206.453547,67.7685014 C204.709401,68.4436546 201.868132,69.7939609 197.929738,71.8194205 L196.832614,72.4945737 C194.863417,73.5635663 193.48498,74.2668508 192.697301,74.6044274 C191.515783,75.0545295 190.390528,75.1951865 189.321535,75.0263982 C188.140017,74.6325588 187.071024,73.5354349 186.114557,71.7350264 C185.214353,70.1596689 184.764251,68.7530998 184.764251,67.5153189 C184.764251,67.5715817 185.242485,67.3183993 186.198952,66.7557716 L186.705316,66.418195 C186.98663,66.3056695 188.61825,65.0116259 191.600177,62.5360642 C200.489694,55.3344301 207.916379,49.5393653 213.880232,45.1508695 C209.998101,45.8260227 206.481679,46.1635993 203.330964,46.1635993 C199.111256,46.1635993 196.579432,45.4884461 195.73549,44.1381398 C195.229125,43.4629866 194.905615,42.1408116 194.764958,40.1716148 C194.624301,38.202418 194.750892,36.6270605 195.144731,35.4455424 L195.144731,35.4455424 Z" id="Shape"></path>
            </g>
            <g id="SvgjsG4343" transform="translate(-0.000000, 118.000000)">
                <path d="M8.11901675,1.54647938 L8.11901675,2.85762494 L2.05076614,2.85762494 L2.05076614,6.58934693 L7.71558734,6.58934693 L7.71558734,7.90049249 L2.05076614,7.90049249 L2.05076614,12.1365012 L8.4215888,12.1365012 L8.4215888,13.4476468 L0.638763222,13.4476468 L0.638763222,1.54647938 L8.11901675,1.54647938 L8.11901675,1.54647938 Z M14.237696,5.37905871 C15.2238568,5.37905871 15.9690806,5.66482121 16.4733673,6.2363462 C16.9776541,6.80787119 17.2297974,7.5699045 17.2297974,8.52244615 L17.2297974,13.4476468 L15.9186519,13.4476468 L15.9186519,8.67373218 C15.9186519,8.06858807 15.7785722,7.5727061 15.4984129,7.18608625 C15.2182536,6.79946641 14.7587923,6.6005533 14.1200291,6.58934693 C13.3131703,6.58934693 12.7052246,6.85549827 12.296192,7.38780095 C11.8871594,7.92010364 11.6826431,8.65692262 11.6826431,9.59825789 L11.6826431,13.4476468 L10.3714976,13.4476468 L10.3714976,7.3289675 C10.3714976,7.27293564 10.3490848,6.69020428 10.3042594,5.58077342 L11.5481667,5.58077342 C11.5705794,6.36521948 11.5817858,6.79666481 11.5817858,6.87510942 L11.6154049,6.87510942 C11.828326,6.42685453 12.1729219,6.06544902 12.6491928,5.7908929 C13.1254636,5.51633678 13.6549647,5.37905871 14.237696,5.37905871 L14.237696,5.37905871 Z M23.5838106,5.37905871 C23.7855253,5.37905871 23.9648272,5.40707465 24.1217164,5.46310651 L24.0376686,6.79106163 C23.7911284,6.72382339 23.5557946,6.69020428 23.3316672,6.69020428 C22.5696339,6.69020428 21.9953073,6.93954606 21.6086874,7.43822963 C21.2220676,7.9369132 21.0287577,8.64011306 21.0287577,9.54782922 L21.0287577,13.4476468 L19.7176121,13.4476468 L19.7176121,7.3289675 C19.7176121,7.17207829 19.6951994,6.58934693 19.6503739,5.58077342 L20.8942812,5.58077342 C20.9166939,6.36521948 20.9279003,6.79666481 20.9279003,6.87510942 L20.9615194,6.87510942 C21.1744405,6.42685453 21.5190365,6.06544902 21.9953073,5.7908929 C22.4715781,5.51633678 23.0010792,5.37905871 23.5838106,5.37905871 Z M26.4078164,1.54647938 C26.6655629,1.54647938 26.8896904,1.63893195 27.0801987,1.8238371 C27.270707,2.00874224 27.3659612,2.23567128 27.3659612,2.50462421 C27.3659612,2.78478352 27.2763102,3.01451415 27.0970083,3.19381611 C26.9177063,3.37311807 26.6879757,3.46276905 26.4078164,3.46276905 C26.1276571,3.46276905 25.8979264,3.37311807 25.7186245,3.19381611 C25.5393225,3.01451415 25.4496715,2.78478352 25.4496715,2.50462421 C25.4496715,2.23567128 25.5449257,2.00874224 25.735434,1.8238371 C25.9259424,1.63893195 26.1500698,1.54647938 26.4078164,1.54647938 Z M27.0633892,5.58077342 L27.0633892,13.4476468 L25.7522436,13.4476468 L25.7522436,5.58077342 L27.0633892,5.58077342 Z M33.2997354,5.37905871 C34.5436427,5.37905871 35.546613,5.79369449 36.3086463,6.62296604 L35.2664537,7.54749176 C34.7397542,6.90872854 34.0785782,6.58934693 33.2829258,6.58934693 C32.4648606,6.58934693 31.8176926,6.85549827 31.3414218,7.38780095 C30.865151,7.92010364 30.6270156,8.62890669 30.6270156,9.5142101 C30.6270156,10.354688 30.8819605,11.0494831 31.3918505,11.5985954 C31.9017404,12.1477076 32.5320989,12.4278669 33.2829258,12.4390733 C34.1458165,12.4390733 34.8125956,12.1140885 35.2832633,11.4641189 L36.2582176,12.3886446 C35.5298034,13.2179162 34.5380395,13.6381551 33.2829258,13.6493615 C32.083844,13.6381551 31.1116912,13.2571385 30.3664674,12.5063115 C29.6212436,11.7554846 29.2374254,10.7581174 29.2150126,9.5142101 C29.226219,8.2590964 29.618442,7.25612608 30.3916817,6.50529913 C31.1649214,5.75447219 32.1342726,5.37905871 33.2997354,5.37905871 L33.2997354,5.37905871 Z M39.0822235,0.739620573 L39.0822235,6.67339472 L39.1158426,6.67339472 C39.3511764,6.28117169 39.698574,5.96739326 40.1580352,5.73205944 C40.6174965,5.49672562 41.1161801,5.37905871 41.6540859,5.37905871 C42.6402467,5.37905871 43.3826689,5.66482121 43.8813524,6.2363462 C44.380036,6.80787119 44.6293778,7.5699045 44.6293778,8.52244615 L44.6293778,13.4476468 L43.3182322,13.4476468 L43.3182322,8.67373218 C43.3182322,8.06858807 43.1781526,7.5727061 42.8979933,7.18608625 C42.6178339,6.79946641 42.1583727,6.6005533 41.5196095,6.58934693 C40.7127506,6.58934693 40.1048049,6.85549827 39.6957724,7.38780095 C39.2867398,7.92010364 39.0822235,8.64011306 39.0822235,9.54782922 L39.0822235,13.4476468 L37.7710779,13.4476468 L37.7710779,0.739620573 L39.0822235,0.739620573 Z M52.1936791,1.54647938 L55.5387812,6.9255381 L58.9847407,1.54647938 L60.6825061,1.54647938 L56.2447827,8.32073145 L56.2447827,13.4476468 L54.8327798,13.4476468 L54.8327798,8.32073145 L50.3950563,1.54647938 L52.1936791,1.54647938 L52.1936791,1.54647938 Z M65.523659,5.37905871 C66.7451536,5.37905871 67.7425207,5.75727378 68.5157604,6.51370391 C69.2890001,7.27013404 69.6924295,8.27030277 69.7260486,9.5142101 C69.7260486,10.7132919 69.3338256,11.6966511 68.5493795,12.4642876 C67.7649334,13.2319241 66.7563599,13.6269487 65.523659,13.6493615 C64.290958,13.6493615 63.2879877,13.2599401 62.514748,12.4810972 C61.7415083,11.7022543 61.3436821,10.7132919 61.3212693,9.5142101 C61.3212693,8.30392189 61.7134924,7.31495953 62.4979384,6.54732303 C63.2823845,5.77968653 64.290958,5.39026509 65.523659,5.37905871 L65.523659,5.37905871 Z M62.7332723,9.5142101 C62.7332723,10.3771008 62.9938204,11.0746974 63.5149167,11.6070001 C64.036013,12.1393028 64.7055938,12.4166605 65.523659,12.4390733 C66.3417241,12.4390733 67.0085033,12.1673187 67.5239964,11.6238097 C68.0394896,11.0803006 68.3028393,10.3771008 68.3140457,9.5142101 C68.3140457,8.66252581 68.0534975,7.96212754 67.5324012,7.41301529 C67.0113049,6.86390305 66.336121,6.58934693 65.5068494,6.58934693 C64.6999906,6.58934693 64.0388146,6.86110145 63.5233215,7.40461051 C63.0078284,7.94811957 62.7444786,8.65131943 62.7332723,9.5142101 Z M73.0711507,5.58077342 L73.0711507,10.354688 C73.0711507,10.9598321 73.214032,11.4557141 73.4997945,11.842334 C73.785557,12.2289538 74.2422166,12.4278669 74.8697735,12.4390733 C75.6766323,12.4390733 76.284578,12.1701203 76.6936106,11.6322145 C77.1026432,11.0943086 77.3071595,10.3771008 77.3071595,9.48059098 L77.3071595,5.58077342 L78.618305,5.58077342 L78.618305,11.6994527 C78.6295114,12.0132311 78.6519241,12.5959625 78.6855433,13.4476468 L77.4416359,13.4476468 C77.4304296,12.9097409 77.4192232,12.4782956 77.4080168,12.1533108 L77.3743977,12.1533108 C77.172683,12.5903593 76.8336902,12.9489632 76.3574194,13.2291225 C75.8811486,13.5092818 75.3404411,13.6493615 74.735297,13.6493615 C73.771549,13.6381551 73.03473,13.349591 72.5248401,12.7836692 C72.0149501,12.2177474 71.7600052,11.4585157 71.7600052,10.5059741 L71.7600052,5.58077342 L73.0711507,5.58077342 Z M84.9723181,5.37905871 C85.1740328,5.37905871 85.3533348,5.40707465 85.510224,5.46310651 L85.4261762,6.79106163 C85.179636,6.72382339 84.9443022,6.69020428 84.7201748,6.69020428 C83.9581414,6.69020428 83.3838149,6.93954606 82.997195,7.43822963 C82.6105752,7.9369132 82.4172652,8.64011306 82.4172652,9.54782922 L82.4172652,13.4476468 L81.1061197,13.4476468 L81.1061197,7.3289675 C81.1061197,7.17207829 81.0837069,6.58934693 81.0388815,5.58077342 L82.2827888,5.58077342 C82.3052015,6.36521948 82.3164079,6.79666481 82.3164079,6.87510942 L82.350027,6.87510942 C82.5629481,6.42685453 82.907544,6.06544902 83.3838149,5.7908929 C83.8600857,5.51633678 84.3895868,5.37905871 84.9723181,5.37905871 L84.9723181,5.37905871 Z M99.9160156,1.54647938 L99.9160156,2.85762494 L95.9825789,2.85762494 L95.9825789,13.4476468 L94.570576,13.4476468 L94.570576,2.85762494 L90.6371393,2.85762494 L90.6371393,1.54647938 L99.9160156,1.54647938 L99.9160156,1.54647938 Z M105.211027,5.37905871 C105.412741,5.37905871 105.592043,5.40707465 105.748932,5.46310651 L105.664885,6.79106163 C105.418344,6.72382339 105.183011,6.69020428 104.958883,6.69020428 C104.19685,6.69020428 103.622523,6.93954606 103.235903,7.43822963 C102.849284,7.9369132 102.655974,8.64011306 102.655974,9.54782922 L102.655974,13.4476468 L101.344828,13.4476468 L101.344828,7.3289675 C101.344828,7.17207829 101.322415,6.58934693 101.27759,5.58077342 L102.521497,5.58077342 C102.54391,6.36521948 102.555116,6.79666481 102.555116,6.87510942 L102.588735,6.87510942 C102.801657,6.42685453 103.146252,6.06544902 103.622523,5.7908929 C104.098794,5.51633678 104.628295,5.37905871 105.211027,5.37905871 L105.211027,5.37905871 Z M110.287513,5.37905871 C111.430563,5.37905871 112.262636,5.64801165 112.783733,6.18591752 C113.304829,6.72382339 113.57098,7.53628539 113.582187,8.6233035 L113.582187,12.1533108 C113.582187,12.489502 113.621409,12.9209473 113.699854,13.4476468 L112.439137,13.4476468 C112.383105,13.3467894 112.355089,12.9545664 112.355089,12.2709777 L112.32147,12.2709777 C111.727532,13.1674875 110.864641,13.6269487 109.732798,13.6493615 C108.869907,13.6493615 108.166707,13.4336388 107.623198,13.0021935 C107.079689,12.5707482 106.807935,12.0076279 106.807935,11.3128329 C106.807935,10.3602912 107.200158,9.66269454 107.984604,9.22004283 C108.76905,8.77739112 109.996148,8.55606527 111.665897,8.55606527 L112.271041,8.55606527 L112.271041,8.33754101 C112.271041,7.19449103 111.621072,6.61175967 110.321132,6.58934693 C109.379797,6.58934693 108.600954,6.87510942 107.984604,7.44663441 L107.160935,6.58934693 C107.967794,5.80490086 109.009987,5.40147146 110.287513,5.37905871 Z M108.219938,11.1783564 C108.219938,12.0636598 108.797066,12.5175179 109.951322,12.5399306 C110.634911,12.5399306 111.192428,12.3214064 111.623873,11.8843578 C112.055318,11.4473093 112.271041,10.8085461 112.271041,9.96806818 L112.271041,9.66549613 L110.825419,9.66549613 C110.052179,9.66549613 109.427424,9.78876622 108.951153,10.0353064 C108.474882,10.2818466 108.231144,10.6628633 108.219938,11.1783564 L108.219938,11.1783564 Z M116.439812,5.58077342 L118.894007,11.7498814 L118.927626,11.7498814 L121.264155,5.58077342 L122.676158,5.58077342 L119.566389,13.4476468 L118.120767,13.4476468 L114.910142,5.58077342 L116.439812,5.58077342 Z M127.668597,5.37905871 C128.834059,5.37905871 129.744577,5.74606741 130.40015,6.4800848 C131.055723,7.21410218 131.389112,8.25349322 131.400319,9.59825789 L131.400319,9.91763951 L125.046306,9.91763951 C125.113544,10.6460537 125.3881,11.2455946 125.869974,11.7162623 C126.351848,12.1869299 126.940182,12.4278669 127.634978,12.4390733 C128.699583,12.4390733 129.528854,12.0412471 130.122792,11.2455946 L131.114556,12.0188343 C130.69992,12.5567402 130.212443,12.9629712 129.652125,13.2375273 C129.091806,13.5120834 128.419424,13.6493615 127.634978,13.6493615 C126.435896,13.6493615 125.472148,13.2599401 124.743734,12.4810972 C124.015319,11.7022543 123.645509,10.7132919 123.634303,9.5142101 C123.634303,8.32633464 124.006915,7.34577706 124.752138,6.57253737 C125.497362,5.79929768 126.469515,5.40147146 127.668597,5.37905871 Z M129.988316,8.80820865 C129.954697,8.12461993 129.733371,7.58391247 129.324338,7.18608625 C128.915306,6.78826003 128.340979,6.58934693 127.601358,6.58934693 C126.928976,6.58934693 126.363054,6.77985526 125.903593,7.16087191 C125.444132,7.54188857 125.158369,8.09100082 125.046306,8.80820865 L129.988316,8.80820865 L129.988316,8.80820865 Z M134.863088,0.739620573 L134.863088,13.4476468 L133.551942,13.4476468 L133.551942,0.739620573 L134.863088,0.739620573 Z M149.857214,1.54647938 L149.857214,2.85762494 L143.788963,2.85762494 L143.788963,6.58934693 L149.453784,6.58934693 L149.453784,7.90049249 L143.788963,7.90049249 L143.788963,12.1365012 L150.159786,12.1365012 L150.159786,13.4476468 L142.37696,13.4476468 L142.37696,1.54647938 L149.857214,1.54647938 L149.857214,1.54647938 Z M153.03422,5.58077342 L155.118606,8.40477924 L157.085324,5.58077342 L158.682232,5.58077342 L155.975893,9.21163805 L159.220138,13.4476468 L157.488753,13.4476468 L155.000939,10.052116 L152.546743,13.4476468 L150.916216,13.4476468 L154.143651,9.21163805 L151.319645,5.58077342 L153.03422,5.58077342 Z M164.616006,5.37905871 C165.859914,5.37905871 166.857281,5.77128175 167.608108,6.55572781 C168.358935,7.34017387 168.739951,8.32633464 168.751158,9.5142101 C168.751158,10.6908792 168.370141,11.6686352 167.608108,12.4474781 C166.846074,13.2263209 165.915945,13.6269487 164.817721,13.6493615 C164.145339,13.6493615 163.537393,13.5036786 162.993884,13.212313 C162.450375,12.9209473 162.049747,12.5343274 161.792,12.0524534 L161.758381,12.0524534 L161.758381,17.2802261 L160.447236,17.2802261 L160.447236,5.58077342 L161.758381,5.58077342 L161.758381,6.72382339 L161.792,6.72382339 C162.56524,5.82731361 163.506575,5.37905871 164.616006,5.37905871 L164.616006,5.37905871 Z M161.758381,9.5142101 C161.758381,10.3771008 162.018929,11.0746974 162.540026,11.6070001 C163.061122,12.1393028 163.730703,12.4166605 164.548768,12.4390733 C165.366833,12.4390733 166.033612,12.1673187 166.549105,11.6238097 C167.064599,11.0803006 167.327948,10.3771008 167.339155,9.5142101 C167.339155,8.66252581 167.078607,7.96212754 166.55751,7.41301529 C166.036414,6.86390305 165.36123,6.58934693 164.531958,6.58934693 C163.7251,6.58934693 163.063924,6.86110145 162.548431,7.40461051 C162.032937,7.94811957 161.769588,8.65131943 161.758381,9.5142101 L161.758381,9.5142101 Z M174.36555,5.37905871 C175.531013,5.37905871 176.441531,5.74606741 177.097103,6.4800848 C177.752676,7.21410218 178.086066,8.25349322 178.097272,9.59825789 L178.097272,9.91763951 L171.743259,9.91763951 C171.810497,10.6460537 172.085053,11.2455946 172.566927,11.7162623 C173.048801,12.1869299 173.637136,12.4278669 174.331931,12.4390733 C175.396536,12.4390733 176.225808,12.0412471 176.819746,11.2455946 L177.81151,12.0188343 C177.396874,12.5567402 176.909397,12.9629712 176.349078,13.2375273 C175.788759,13.5120834 175.116377,13.6493615 174.331931,13.6493615 C173.132849,13.6493615 172.169101,13.2599401 171.440687,12.4810972 C170.712273,11.7022543 170.342462,10.7132919 170.331256,9.5142101 C170.331256,8.32633464 170.703868,7.34577706 171.449092,6.57253737 C172.194316,5.79929768 173.166468,5.40147146 174.36555,5.37905871 Z M176.685269,8.80820865 C176.65165,8.12461993 176.430324,7.58391247 176.021292,7.18608625 C175.612259,6.78826003 175.037932,6.58934693 174.298312,6.58934693 C173.62593,6.58934693 173.060008,6.77985526 172.600547,7.16087191 C172.141085,7.54188857 171.855323,8.09100082 171.743259,8.80820865 L176.685269,8.80820865 L176.685269,8.80820865 Z M183.997427,5.37905871 C184.199142,5.37905871 184.378444,5.40707465 184.535333,5.46310651 L184.451285,6.79106163 C184.204745,6.72382339 183.969411,6.69020428 183.745284,6.69020428 C182.98325,6.69020428 182.408924,6.93954606 182.022304,7.43822963 C181.635684,7.9369132 181.442374,8.64011306 181.442374,9.54782922 L181.442374,13.4476468 L180.131229,13.4476468 L180.131229,7.3289675 C180.131229,7.17207829 180.108816,6.58934693 180.06399,5.58077342 L181.307898,5.58077342 C181.330311,6.36521948 181.341517,6.79666481 181.341517,6.87510942 L181.375136,6.87510942 C181.588057,6.42685453 181.932653,6.06544902 182.408924,5.7908929 C182.885195,5.51633678 183.414696,5.37905871 183.997427,5.37905871 L183.997427,5.37905871 Z M186.821433,1.54647938 C187.07918,1.54647938 187.303307,1.63893195 187.493815,1.8238371 C187.684324,2.00874224 187.779578,2.23567128 187.779578,2.50462421 C187.779578,2.78478352 187.689927,3.01451415 187.510625,3.19381611 C187.331323,3.37311807 187.101592,3.46276905 186.821433,3.46276905 C186.541274,3.46276905 186.311543,3.37311807 186.132241,3.19381611 C185.952939,3.01451415 185.863288,2.78478352 185.863288,2.50462421 C185.863288,2.23567128 185.958542,2.00874224 186.149051,1.8238371 C186.339559,1.63893195 186.563686,1.54647938 186.821433,1.54647938 L186.821433,1.54647938 Z M187.477006,5.58077342 L187.477006,13.4476468 L186.16586,13.4476468 L186.16586,5.58077342 L187.477006,5.58077342 Z M193.662923,5.37905871 C194.828386,5.37905871 195.738904,5.74606741 196.394477,6.4800848 C197.050049,7.21410218 197.383439,8.25349322 197.394645,9.59825789 L197.394645,9.91763951 L191.040632,9.91763951 C191.10787,10.6460537 191.382427,11.2455946 191.864301,11.7162623 C192.346175,12.1869299 192.934509,12.4278669 193.629304,12.4390733 C194.69391,12.4390733 195.523181,12.0412471 196.117119,11.2455946 L197.108883,12.0188343 C196.694247,12.5567402 196.20677,12.9629712 195.646451,13.2375273 C195.086133,13.5120834 194.41375,13.6493615 193.629304,13.6493615 C192.430222,13.6493615 191.466474,13.2599401 190.73806,12.4810972 C190.009646,11.7022543 189.639836,10.7132919 189.628629,9.5142101 C189.628629,8.32633464 190.001241,7.34577706 190.746465,6.57253737 C191.491689,5.79929768 192.463841,5.40147146 193.662923,5.37905871 Z M195.982642,8.80820865 C195.949023,8.12461993 195.727697,7.58391247 195.318665,7.18608625 C194.909632,6.78826003 194.335306,6.58934693 193.595685,6.58934693 C192.923303,6.58934693 192.357381,6.77985526 191.89792,7.16087191 C191.438458,7.54188857 191.152696,8.09100082 191.040632,8.80820865 L195.982642,8.80820865 L195.982642,8.80820865 Z M203.2948,5.37905871 C204.280961,5.37905871 205.026185,5.66482121 205.530472,6.2363462 C206.034758,6.80787119 206.286902,7.5699045 206.286902,8.52244615 L206.286902,13.4476468 L204.975756,13.4476468 L204.975756,8.67373218 C204.975756,8.06858807 204.835676,7.5727061 204.555517,7.18608625 C204.275358,6.79946641 203.815897,6.6005533 203.177133,6.58934693 C202.370275,6.58934693 201.762329,6.85549827 201.353296,7.38780095 C200.944264,7.92010364 200.739747,8.65692262 200.739747,9.59825789 L200.739747,13.4476468 L199.428602,13.4476468 L199.428602,7.3289675 C199.428602,7.27293564 199.406189,6.69020428 199.361364,5.58077342 L200.605271,5.58077342 C200.627684,6.36521948 200.63889,6.79666481 200.63889,6.87510942 L200.672509,6.87510942 C200.88543,6.42685453 201.230026,6.06544902 201.706297,5.7908929 C202.182568,5.51633678 202.712069,5.37905871 203.2948,5.37905871 L203.2948,5.37905871 Z M212.405581,5.37905871 C213.649488,5.37905871 214.652459,5.79369449 215.414492,6.62296604 L214.372299,7.54749176 C213.8456,6.90872854 213.184424,6.58934693 212.388771,6.58934693 C211.570706,6.58934693 210.923538,6.85549827 210.447267,7.38780095 C209.970997,7.92010364 209.732861,8.62890669 209.732861,9.5142101 C209.732861,10.354688 209.987806,11.0494831 210.497696,11.5985954 C211.007586,12.1477076 211.637944,12.4278669 212.388771,12.4390733 C213.251662,12.4390733 213.918441,12.1140885 214.389109,11.4641189 L215.364063,12.3886446 C214.635649,13.2179162 213.643885,13.6381551 212.388771,13.6493615 C211.18969,13.6381551 210.217537,13.2571385 209.472313,12.5063115 C208.727089,11.7554846 208.343271,10.7581174 208.320858,9.5142101 C208.332065,8.2590964 208.724288,7.25612608 209.497527,6.50529913 C210.270767,5.75447219 211.240118,5.37905871 212.405581,5.37905871 L212.405581,5.37905871 Z M220.45736,5.37905871 C221.622822,5.37905871 222.53334,5.74606741 223.188913,6.4800848 C223.844486,7.21410218 224.177875,8.25349322 224.189081,9.59825789 L224.189081,9.91763951 L217.835068,9.91763951 C217.902307,10.6460537 218.176863,11.2455946 218.658737,11.7162623 C219.140611,12.1869299 219.728945,12.4278669 220.42374,12.4390733 C221.488346,12.4390733 222.317617,12.0412471 222.911555,11.2455946 L223.903319,12.0188343 C223.488683,12.5567402 223.001206,12.9629712 222.440887,13.2375273 C221.880569,13.5120834 221.208186,13.6493615 220.42374,13.6493615 C219.224659,13.6493615 218.260911,13.2599401 217.532496,12.4810972 C216.804082,11.7022543 216.434272,10.7132919 216.423065,9.5142101 C216.423065,8.32633464 216.795677,7.34577706 217.540901,6.57253737 C218.286125,5.79929768 219.258278,5.40147146 220.45736,5.37905871 L220.45736,5.37905871 Z M222.777079,8.80820865 C222.743459,8.12461993 222.522134,7.58391247 222.113101,7.18608625 C221.704068,6.78826003 221.129742,6.58934693 220.390121,6.58934693 C219.717739,6.58934693 219.151817,6.77985526 218.692356,7.16087191 C218.232895,7.54188857 217.947132,8.09100082 217.835068,8.80820865 L222.777079,8.80820865 Z" id="Shape"></path>
            </g>
        </g>
    </g>
</svg>