<?xml version="1.0" standalone="no"?>
<!DOCTYPE svg PUBLIC "-//W3C//DTD SVG 1.1//EN" "http://www.w3.org/Graphics/SVG/1.1/DTD/svg11.dtd" >
<svg xmlns="http://www.w3.org/2000/svg">
<metadata>Generated by IcoMoon</metadata>
<defs>
<font id="icomoon" horiz-adv-x="1024">
<font-face units-per-em="1024" ascent="960" descent="-64" />
<missing-glyph horiz-adv-x="1024" />
<glyph unicode="&#x20;" horiz-adv-x="512" d="" />
<glyph unicode="&#xe900;" d="M512-63.998c281.996 0 512 229.998 512 511.994 0 282.002-229.998 512-512 512s-512-229.998-512-511.998c0-281.996 229.998-511.996 512-511.996z" />
<glyph unicode="&#xe901;" d="M341.024 356.004c-42.696 107.716-132.382 205.2-19.526 401.562 46.48 80.872 117.478 134.208 190.822 116.15 73.344 18.056 144.342-35.28 190.822-116.15 112.852-196.362 23.172-293.846-19.53-401.562l-171.286-0.424-171.302 0.424z" />
<glyph unicode="&#xe902;" d="M223.818 187.614c-5.356-8.646-18.718-82.172-33.496-137.916 87.916-71.088 199.814-113.69 321.672-113.69 121.864 0 233.76 42.602 321.676 113.69-14.784 55.738-28.144 129.276-33.5 137.916-82.252 132.812-209.036 74.834-217.68 226.814 0 0-40.788-30.438-71.932-30.716-31.146-0.278-69.1 28.796-69.1 28.796-8.624-151.848-135.446-92.182-217.64-224.894z" />
<glyph unicode="&#xe903;" d="M584.698 392.962c-1.022 6.662-1.774 13.786-2.208 21.462 0 0-40.788-30.438-71.932-30.716-31.146-0.278-69.1 28.796-69.1 28.796-0.44-7.816-1.212-15.046-2.266-21.796 0.798-0.63 1.59-1.27 2.402-1.894l-0.010-0.11c2.398-2.088 38.856-33.438 68.968-33.122 30.112-0.314 66.566 31.040 68.968 33.122l-0.006 0.11c1.768 1.354 3.484 2.748 5.178 4.144l0.006 0.004z" />
<glyph unicode="&#xe904;" d="M441.588 412.408c2.398-1.81 38.856-28.968 68.968-28.698 30.112-0.27 66.566 26.892 68.968 28.698 45.514 26.534 82.86 104.766 74.43 189.552-6.904 69.452-82.036-32.384-134.364 110.916-74.062-155.144-144.406-63.372-152.426-122.168-8.84-64.782 27.53-146.294 74.424-178.304v0.004z" />
<glyph unicode="&#xe905;" d="M381.832 303.776c-44.822-23.942-126.816-24.666-158.014-74.824-5.434-8.734-19.074-115.736-34.078-178.788 87.996-71.366 200.122-114.158 322.248-114.158 122.136 0 234.252 42.786 322.254 114.158-15.004 63.052-30.284 169.224-34.078 178.788-20.716 52.25-116.612 54.432-161.48 78.526-69.76-253.092-173.736-270.346-256.848-3.724l-0.004 0.022z" />
<glyph unicode="&#xe906;" d="M411.718 328.93c-2.912-78.742 10.476-190.296 98.828-218.804-83.18-3.478-137.156 116.372-198.644 147.762l99.816 71.042z" />
<glyph unicode="&#xe907;" d="M614.328 328.93c3.054-78.742-11-190.296-103.78-218.804 87.346-3.478 144.028 116.372 208.584 147.762l-104.804 71.042z" />
<glyph unicode="&#xe908;" d="M1024 448c0-282.77-229.23-512-512-512s-512 229.23-512 512c0 282.77 229.23 512 512 512s512-229.23 512-512z" />
<glyph unicode="&#xe909;" d="M512 960c282.77 0 512-229.23 512-512s-229.23-512-512-512c-282.77 0-512 229.23-512 512s229.23 512 512 512z" />
<glyph unicode="&#xe90a;" d="M435.052 445.562c44.996 0 90.002 0 135.006 0l10.946-113.788 33.024-24.248 196.584-62.308c0 0 25.772-14.188 33.348-53.846 1.57-8.194 2.966-73.364 4.25-129.502-89.956-78.38-207.53-125.862-336.21-125.862-138.092 0-263.39 54.686-355.48 143.56 0.804 48.072 1.996 98.002 4.638 111.802 5.1 26.734 33.348 53.846 33.348 53.846l197.924 63.166 31.694 23.39 10.928 113.79z" />
<glyph unicode="&#xe90b;" d="M392.42 308.374l-197.924-63.166c0 0-28.248-27.112-33.348-53.846-2.642-13.8-3.834-63.73-4.638-111.802 92.090-88.874 217.398-143.56 355.48-143.56 128.678 0 246.264 47.48 336.21 125.862-1.284 56.128-2.688 121.298-4.25 129.502-7.574 39.656-33.348 53.846-33.348 53.846l-196.584 62.308c-32.57-95.528-190.55-91.546-221.598 0.856z" />
<glyph unicode="&#xe90c;" d="M333.984 618.378c-42.344 7.51-6.244-118.942 24.674-100.088l16.6-48.738c14.956-43.906 52.664-83.876 81.364-115.534 11.206-12.342 79.822-12.138 90.916-0.472 31.778 33.422 69.532 70.962 83.71 116.246l15.186 48.488c30.974-18.826 66.99 107.59 24.682 100.088 2.928 98.426-66.668 193.924-168.566 194.358-101.9-0.434-171.494-95.932-168.566-194.358v0.010z" />
<glyph unicode="&#xe90d;" d="M624.088 793.346c11.972 1.386 55.166-38.078 60.348-83.776 5.182-45.708-2.698-92.818-2.698-92.818-21.144-4.582-25.578-52.838-25.578-52.838l-9.164-0.398-6.53 32.922c-37.864 23.732 14.938 117.502-22.936 125.722-64.83-53.394-161.002-73.152-244.914-59.444-23.556-3.14 10.706-32.904 0.766-67.148-7.326-12.784-2.956-32.96-2.956-32.96l-10.956-1.368c0 0-6.78 57.282-27.906 57.042-9.764 26.392-7.76 43.112-5.968 66.696 9.93 130.674 175.956 212.694 298.484 108.366l0.008 0.002z" />
<glyph unicode="&#xe90e;" d="M638.582 299.738c-42.41-122.508-230.228-122.038-272.184 0.332l26.022 8.304c31.048-92.394 189.028-96.376 221.6-0.86l24.562-7.776z" />
<glyph unicode="&#xe90f;" d="M295.676-17.105l2.152 29.425 6.938-33.712c-3.050 1.395-6.080 2.828-9.090 4.287zM710.034-25.506v0c-3.834-1.662-7.676-3.274-11.556-4.841l8.784 42.667 2.762-37.828 0.010 0.002z" />
<glyph unicode="&#xe910;" d="M639.348 142.246h26.512v-7.796h-26.512z" />
<glyph unicode="&#xe911;" d="M652.604 142.246h13.256v-7.796h-13.256z" />
<glyph unicode="&#xe912;" d="M1024 448c0-282.77-229.23-512-512-512s-512 229.23-512 512c0 282.77 229.23 512 512 512s512-229.23 512-512z" />
<glyph unicode="&#xe913;" d="M1024 448c0-282.77-229.23-512-512-512s-512 229.23-512 512c0 282.77 229.23 512 512 512s512-229.23 512-512z" />
<glyph unicode="&#xe914;" d="M332.833 704c-19.499 0-34.167-21.333-34.167-21.333-111.68 0-50.064-178.259-82.875-204.542 0 0 20.112-24.875 82.875-24.875v-21.292c-17.344-45.184-106.667-28.481-106.667-111.958h171.167c15.019 9.088 63.5 34.292 63.5 34.292-11.584 12.373-28.295 33.766-34.375 49.958-13.312 6.677-24.569 14.524-29.625 27.708v21.542c4.053 0 16.006 0.936 20.208 1.875-9.515 14.656-17.542 48.061-17.542 66.792 0 47.637 20.515 86.82 54.542 111.375-10.261 39.275-33.047 70.458-87.042 70.458zM682.667 704c-47.424 0-76.543-32.623-83.583-75.375 34.475-18.475 56.917-58.304 56.917-108.458 0-15.68-3.657-30.768-7.625-42.458 1.472-5.781 2.292-12.228 2.292-19.375 0-52.693-53.333-105.25-53.333-105.25 11.584-5.056 48.645-23.889 63.792-33.083h170.875c0 112-90.944 80-106.667 128v32c7.083 3.563 23.95 28.093 26.083 47.25 5.547 0.427 16.583 13.986 16.583 26.125s-3.859 17.246-7.208 19.208c0 0 7.208 16.025 7.208 35.417 0 38.848-10.496 74.667-42.667 74.667 0 0-9.237 21.333-42.667 21.333zM512 618.667c-57.429 0-104-34.591-104-96.5 0-26.176 14.667-46.583 14.667-46.583s-6.667-3.277-6.667-17.25c0-27.157 17.458-33.667 17.458-33.667 2.432-21.504 35.875-53 35.875-53v-35.958c-17.963-53.888-128-18.375-128-143.708h341.333c0 125.76-110.037 89.82-128 143.708v35.958c0 0 33.443 31.496 35.875 53 0 0 17.458 12.056 17.458 33.667 0 14.976-6.667 17.25-6.667 17.25s12 22.823 12 44.583c0 43.627-21.888 77.167-58.667 77.167 0 0-15.616 21.333-42.667 21.333z" />
<glyph unicode="&#xe915;" d="M1024 448c0-282.77-229.23-512-512-512s-512 229.23-512 512c0 282.77 229.23 512 512 512s512-229.23 512-512z" />
<glyph unicode="&#xe916;" d="M575.958 682.667c-43.68 0-87.344-16.677-120.667-50l-42.375-42.333c-23.979-23.979-52.479-42.66-83.583-55.375l269.583-269.583c12.715 31.104 31.396 59.583 55.375 83.583l42.375 42.375c56.933 56.933 65.047 144.005 24.708 209.75 15.366 6.851 25.271 22.093 25.292 38.917 0 23.564-19.103 42.667-42.667 42.667-16.824-0.020-32.065-9.926-38.917-25.292-27.272 16.741-58.165 25.292-89.125 25.292zM277.125 533.542c-8.681 0-16.495-5.264-19.762-13.307s-1.334-17.263 4.887-23.318l115.708-115.708c-21.821-7.199-36.579-27.564-36.625-50.542 0-29.455 23.878-53.333 53.333-53.333 22.982 0.022 43.366 14.764 50.583 36.583l115.667-115.667c5.351-5.573 13.296-7.818 20.772-5.869s13.314 7.787 15.263 15.263c1.949 7.476-0.296 15.422-5.869 20.772l-298.667 298.667c-4.016 4.129-9.532 6.458-15.292 6.458z" />
<glyph unicode="&#xe917;" d="M1024 448c0-282.77-229.23-512-512-512s-512 229.23-512 512c0 282.77 229.23 512 512 512s512-229.23 512-512z" />
<glyph unicode="&#xe918;" d="M426.667 746.667l-10.708-74.458-50.458-93.958c-14.869-27.669-43.743-44.917-75.167-44.917h-13v-277.333h42.667c27.328-27.328 64.365-42.667 103-42.667h217c23.564 0 42.667 19.103 42.667 42.667v22.5c24.799 5.062 42.624 26.857 42.667 52.167-0.022 13.046-4.825 25.631-13.5 35.375 20.913 7.734 34.807 27.661 34.833 49.958-0.020 16.802-7.956 32.612-21.417 42.667 13.461 10.055 21.397 25.865 21.417 42.667 0 29.455-23.878 53.333-53.333 53.333h-202.667c0 0 21.333 69.675 21.333 85.333 0 48.021 0 106.667-64 106.667h-21.333z" />
<glyph unicode="&#xe919;" d="M1024 448c0-282.77-229.23-512-512-512s-512 229.23-512 512c0 282.77 229.23 512 512 512s512-229.23 512-512z" />
<glyph unicode="&#xe91a;" d="M789.333 508.075v110.592c0 23.573-19.093 42.667-42.667 42.667h-469.333c-23.573 0-42.667-19.093-42.667-42.667v-110.592c24.811-8.811 42.667-32.256 42.667-60.075s-17.856-51.264-42.667-60.075v-110.592c0-23.573 19.093-42.667 42.667-42.667h469.333c23.573 0 42.667 19.093 42.667 42.667v110.592c-24.811 8.811-42.667 32.256-42.667 60.075s17.856 51.264 42.667 60.075zM630.443 470.165l-61.909-46.080 22.997-73.664c3.093-9.877-8.128-18.027-16.576-12.032l-62.955 44.629-62.955-44.629c-8.448-5.995-19.648 2.155-16.576 12.032l22.997 73.664-61.909 46.080c-8.299 6.165-4.011 19.349 6.336 19.477l77.163 0.896 24.704 73.109c3.307 9.792 17.173 9.792 20.48 0l24.704-73.109 77.163-0.896c10.347-0.107 14.635-13.291 6.336-19.477z" />
<glyph unicode="&#xe91b;" d="M1024 448c0-282.77-229.23-512-512-512s-512 229.23-512 512c0 282.77 229.23 512 512 512s512-229.23 512-512z" />
<glyph unicode="&#xe91c;" d="M447.792 682.708c-5.515 0-11.037-2.12-15.25-6.333l-47.917-47.917-105.292 16.625-14.292-14.292 77.583-44.333-37-37-38.625 9.667-11-11 78.792-78.792 11 11-9.667 38.625 36.958 37 44.333-77.583 14.292 14.292-16.583 105.292 47.917 47.917c8.427 8.427 8.427 22.073 0 30.5-4.213 4.213-9.735 6.333-15.25 6.333zM512 682.667c-1.323 0-2.574-0.187-3.875-0.208 4.864-13.803 4.843-28.864 0-42.667 1.28 0.021 2.574 0.208 3.875 0.208 44.907 0 86.548-14.005 120.958-37.792l-14.292-4.875v-21.333h-21.333l-21.333-21.333v-42.667l42.667 21.333 64-21.333-21.333-42.667-42.667 21.333h-42.667l-42.667-42.667v-42.667l42.667-42.667h42.667l21.333-42.667-44.917-89.833c-25.557-10.837-53.622-16.833-83.083-16.833-7.851 0-15.592 0.501-23.208 1.333l-41.542 40.583 0.75 86.083-64 64h-64l-16.167-24.792c-3.285 14.891-5.167 30.274-5.167 46.125 0 5.931 0.426 11.739 0.917 17.542l-37.458 37.458c-3.925-17.728-6.125-36.099-6.125-55 0-141.163 114.837-256 256-256s256 114.837 256 256c0 141.163-114.837 256-256 256z" />
<glyph unicode="&#xe91d;" d="M1024 448c0-282.77-229.23-512-512-512s-512 229.23-512 512c0 282.77 229.23 512 512 512s512-229.23 512-512z" />
<glyph unicode="&#xe91e;" d="M447.792 682.708c-5.515 0-11.037-2.12-15.25-6.333l-47.917-47.917-105.292 16.625-14.292-14.292 77.583-44.333-37-37-38.625 9.667-11-11 78.792-78.792 11 11-9.667 38.625 36.958 37 44.333-77.583 14.292 14.292-16.583 105.292 47.917 47.917c8.427 8.427 8.427 22.073 0 30.5-4.213 4.213-9.735 6.333-15.25 6.333zM512 682.667c-1.323 0-2.574-0.187-3.875-0.208 4.864-13.803 4.843-28.864 0-42.667 1.28 0.021 2.574 0.208 3.875 0.208 44.907 0 86.548-14.005 120.958-37.792l-14.292-4.875v-21.333h-21.333l-21.333-21.333v-42.667l42.667 21.333 64-21.333-21.333-42.667-42.667 21.333h-42.667l-42.667-42.667v-42.667l42.667-42.667h42.667l21.333-42.667-44.917-89.833c-25.557-10.837-53.622-16.833-83.083-16.833-7.851 0-15.592 0.501-23.208 1.333l-41.542 40.583 0.75 86.083-64 64h-64l-16.167-24.792c-3.285 14.891-5.167 30.274-5.167 46.125 0 5.931 0.426 11.739 0.917 17.542l-37.458 37.458c-3.925-17.728-6.125-36.099-6.125-55 0-141.163 114.837-256 256-256s256 114.837 256 256c0 141.163-114.837 256-256 256z" />
<glyph unicode="&#xe91f;" d="M1024 448c0-282.77-229.23-512-512-512s-512 229.23-512 512c0 282.77 229.23 512 512 512s512-229.23 512-512z" />
<glyph unicode="&#xe920;" d="M763.592 425.91h-442.436v215.545c0 6.271-5.073 11.345-11.344 11.345h-68.067c-6.271 0-11.345-5.074-11.345-11.345v-385.714c0-6.27 5.074-11.344 11.345-11.344h68.067c6.271 0 11.345 5.074 11.345 11.345v79.412h363.024v-79.412c0-6.271 5.074-11.345 11.345-11.345h68.067c6.271 0 11.345 5.074 11.345 11.345v158.823c0 6.271-5.075 11.345-11.346 11.345z" />
<glyph unicode="&#xe921;" d="M479.98 516.666c0-37.592-30.475-68.067-68.067-68.067s-68.067 30.475-68.067 68.067c0 37.592 30.475 68.067 68.067 68.067s68.067-30.475 68.067-68.067z" />
<glyph unicode="&#xe922;" d="M514.013 448.599h249.58c6.271 0 11.345 5.074 11.345 11.345 0 68.809-55.981 124.789-124.79 124.789h-136.134c-6.271 0-11.345-5.074-11.345-11.345v-113.445c0-6.27 5.074-11.344 11.345-11.344z" />
<glyph unicode="&#xe923;" d="M1024 448c0-282.77-229.23-512-512-512s-512 229.23-512 512c0 282.77 229.23 512 512 512s512-229.23 512-512z" />
<glyph unicode="&#xe924;" d="M765.155 504.889c6.289 0 11.378 5.089 11.378 11.378v91.022c0 25.101-20.411 45.511-45.511 45.511h-455.11c-25.101 0-45.511-20.411-45.511-45.511v-91.022c0-6.289 5.089-11.378 11.378-11.378 31.366 0 56.889-25.522 56.889-56.889s-25.522-56.889-56.889-56.889c-6.289 0-11.378-5.089-11.378-11.378v-91.022c0-25.101 20.411-45.511 45.511-45.511h455.111c25.1 0 45.51 20.411 45.51 45.511v91.022c0 6.289-5.089 11.378-11.378 11.378-31.366 0-56.889 25.522-56.889 56.889s25.522 56.889 56.889 56.889zM389.689 300.089c0-6.289-5.089-11.378-11.378-11.378s-11.378 5.089-11.378 11.378v22.755c0 6.289 5.089 11.378 11.378 11.378s11.378-5.089 11.378-11.378v-22.755zM389.689 391.111c0-6.289-5.089-11.378-11.378-11.378s-11.378 5.089-11.378 11.378v22.755c0 6.289 5.089 11.378 11.378 11.378s11.378-5.089 11.378-11.378v-22.755zM389.689 482.133c0-6.289-5.089-11.378-11.378-11.378s-11.378 5.089-11.378 11.378v22.755c0 6.289 5.089 11.378 11.378 11.378s11.378-5.089 11.378-11.378v-22.755zM389.689 573.155c0-6.289-5.089-11.378-11.378-11.378s-11.378 5.089-11.378 11.378v25.6c0 6.289 5.089 11.378 11.378 11.378s11.378-5.089 11.378-11.378v-25.6zM628.622 356.978h-159.289c-6.289 0-11.378 5.089-11.378 11.378s5.089 11.378 11.378 11.378h159.289c6.289 0 11.378-5.089 11.378-11.378s-5.089-11.378-11.378-11.378zM628.622 436.622h-159.289c-6.289 0-11.378 5.089-11.378 11.378s5.089 11.378 11.378 11.378h159.289c6.289 0 11.378-5.089 11.378-11.378s-5.089-11.378-11.378-11.378zM628.622 516.267h-159.289c-6.289 0-11.378 5.089-11.378 11.378s5.089 11.378 11.378 11.378h159.289c6.289 0 11.378-5.089 11.378-11.378s-5.089-11.378-11.378-11.378z" />
<glyph unicode="&#xe925;" d="M1024 448c0-282.77-229.23-512-512-512s-512 229.23-512 512c0 282.77 229.23 512 512 512s512-229.23 512-512z" />
<glyph unicode="&#xe926;" d="M724.11 304.642c-31.841 26.64-125.491 105.225-168.428 143.546 23.258 21.324 55.803 53.041 87.455 83.895 36.239 35.319 70.475 68.692 85.998 81.801 7.86 6.648 12.37 16.405 12.37 26.761 0 12.978-6.746 24.486-18.049 30.778-11.247 6.254-24.486 5.945-35.425-0.852-35.313-21.92-176.477-123.375-176.477-145.248 0-6.454-0.263-14.042-2.56-22.654-10.554 18.115-16.602 34.71-16.602 41.83 0 13.643-46.325 58.082-137.694 132.101-3.789 3.072-10.151 1.967-13.623-1.497-3.743-3.746-3.743-9.813 0-13.558l91.022-91.089c3.733-3.736 3.733-9.822 0-13.558-3.631-3.615-9.918-3.615-13.548 0l-91.022 91.088c-3.743 3.746-9.806 3.746-13.548 0l-1.646-1.648c-3.743-3.746-3.743-9.813 0-13.558l91.022-91.089c3.733-3.736 3.733-9.822 0-13.558-3.631-3.615-9.918-3.615-13.548 0l-91.023 91.088c-3.724 3.727-10.611 2.912-14.372-0.824-3.472-3.465-3.762-8.999-0.674-12.809 73.965-91.435 118.372-137.794 132.004-137.794 8.135 0 28.585-7.875 49.607-21.44-42.484-37.791-129.072-110.518-166.333-141.693-11.069-9.261-17.416-22.885-17.416-37.38 0-26.902 21.87-48.785 48.752-48.785 14.475 0 28.098 6.358 37.352 17.444 32.018 38.306 106.897 127.585 143.855 168.989 38.136-42.746 117.146-137.044 143.874-169.026 9.245-11.068 22.859-17.407 37.324-17.407 26.882 0 48.749 21.883 48.749 48.785 0 14.495-6.343 28.11-17.395 37.361z" />
<glyph unicode="&#xe927;" glyph-name="experience_not_found" d="M1014.822 957.297c-5.689 3.435-12.781 3.586-18.641 0.51l-313.515-165.184-313.496 165.184c-0.247 0.132-0.531 0.17-0.777 0.283-0.91 0.434-1.839 0.755-2.788 1.038-0.531 0.151-1.043 0.321-1.574 0.434-1.043 0.208-2.105 0.283-3.186 0.321-0.474 0.019-0.948 0.075-1.441 0.057-1.024-0.057-2.029-0.245-3.034-0.472-0.569-0.113-1.138-0.189-1.688-0.359-0.133-0.038-0.265-0.038-0.379-0.075l-341.333-113.23c-7.756-2.567-12.971-9.776-12.971-17.909v-811.484c0-6.058 2.92-11.757 7.889-15.324 3.262-2.321 7.149-3.548 11.074-3.548 2.010 0 4.039 0.321 5.992 0.981l334.62 111.003 315.866-129.441c0.265-0.113 0.569-0.075 0.834-0.17 2.086-0.736 4.21-1.246 6.391-1.246 1.707 0 3.394 0.283 5.044 0.736 0.531 0.151 1.024 0.396 1.555 0.585 0.759 0.283 1.555 0.491 2.276 0.868l322.37 169.845c6.201 3.265 10.088 9.7 10.088 16.683v773.74c0 6.624-3.489 12.757-9.178 16.173zM37.926 814.288l303.407 100.643v-509.385c-8.154-1.472-16.194-3.133-23.969-5.171-10.126-2.68-16.156-13.003-13.464-23.080 2.257-8.455 9.918-14.041 18.318-14.041 1.593 0 3.243 0.208 4.873 0.623 4.551 1.208 9.519 1.812 14.241 2.793v-223.441l-303.407-100.624v771.683zM379.259 371.953c6.087 0.472 11.985 1.246 18.223 1.378 10.468 0.226 18.773 8.851 18.565 19.268-0.228 10.285-8.666 18.475-18.963 18.475-0.133 0-0.284 0-0.417 0-5.879-0.132-11.662-0.453-17.408-0.849v499.553l284.444-149.86v-399.967c-13.54 0.585-27.307 2.17-41.737 4.944-10.316 2.019-20.233-4.699-22.225-14.928s4.741-20.136 15.019-22.118c16.801-3.246 33.109-4.831 48.962-5.454v-296.682l-284.463 116.571v229.669zM986.074 178.764l-284.444-149.86v295.531c7.054 3.189 11.757 10.361 11.131 18.494-0.55 7.058-5.101 12.72-11.131 15.494v401.496l284.444 149.86v-731.015zM853.693 459.908c2.084-0.858 4.22-1.242 6.321-1.242 6.946 0 13.492 4.401 16.184 11.614 8.161 21.895 14.708 46.621 19.501 73.483 1.771 9.898-4.445 19.43-13.874 21.311-9.481 1.644-18.493-4.693-20.265-14.609-4.376-24.616-10.332-47.114-17.695-66.891-3.49-9.368 0.903-19.978 9.828-23.666zM247.95 370.502c-23.169-13.991-44.054-31.511-62.098-52.118-6.834-7.799-5.797-19.461 2.303-26.041 3.609-2.92 8.005-4.343 12.362-4.343 5.471 0 10.884 2.236 14.685 6.561 15.472 17.668 33.343 32.694 53.133 44.615 8.984 5.434 11.69 16.837 6.066 25.486s-17.487 11.274-26.452 5.84zM169.744 254.317c-10.014 4.219-21.863 0.238-26.471-8.97-20.466-40.834-25.533-73.799-25.752-75.193-1.496-10.034 6.124-19.261 17.035-20.637 0.918-0.128 1.855-0.183 2.753-0.183 9.794 0 18.332 6.641 19.748 15.794 0.040 0.294 4.608 29.296 22.441 64.828 4.608 9.227 0.239 20.105-9.754 24.361zM765.678 341.333c2.902 0 5.862 0.661 8.613 2.058 24.51 12.48 46.117 30.189 64.196 52.6 6.564 8.137 5.255 20.032-2.921 26.545-8.157 6.476-20.109 5.211-26.672-2.908-14.721-18.257-32.174-32.587-51.884-42.612-9.333-4.758-13.033-16.123-8.252-25.412 3.377-6.514 10.035-10.271 16.922-10.271zM554.145 386.316c-8.027 3.3-12.723 5.583-13.033 5.743-1.183 0.589-2.439 1.070-3.731 1.391-19.713 4.958-39.134 8.882-57.755 11.665-9.92 1.534-19.221-5.19-20.75-14.929-1.511-9.738 5.315-18.853 15.253-20.333 16.855-2.533 34.456-6.064 52.367-10.523 2.439-1.141 7.099-3.3 13.615-5.957 2.293-0.945 4.678-1.373 7.008-1.373 7.117 0 13.888 4.102 16.8 10.951 3.877 9.132-0.491 19.584-9.774 23.365zM893.766 597.372c0.449-0.020 0.877-0.039 1.326-0.039 10.672 0 19.649 7.944 20.343 18.333 1.265 18.802 1.898 38.7 1.898 59.087 0 6.789-0.061 13.676-0.204 20.7-0.204 10.82-9.998 19.037-20.772 19.213-11.263-0.196-20.241-9.117-20.037-19.918 0.122-6.789 0.204-13.461 0.204-19.996 0-19.565-0.612-38.602-1.816-56.603-0.714-10.781 7.815-20.074 19.058-20.778zM123.068 475.063c3.813-3.813 8.819-5.73 13.825-5.73s10.012 1.916 13.825 5.73l25.283 25.284 25.283-25.284c3.813-3.813 8.819-5.73 13.825-5.73s10.012 1.916 13.825 5.73c7.646 7.646 7.646 20.004 0 27.65l-25.283 25.284 25.283 25.284c7.646 7.646 7.646 20.004 0 27.65s-20.004 7.646-27.649 0l-25.283-25.284-25.283 25.284c-7.646 7.646-20.004 7.646-27.649 0s-7.646-20.005 0-27.65l25.283-25.284-25.283-25.284c-7.646-7.626-7.646-20.004 0-27.65z" />
<glyph unicode="&#xe928;" d="M511.986-56.124c-278.327 0.39-503.676 226.266-503.417 504.594s226.031 503.782 504.358 503.652c278.327-0.13 503.888-225.795 503.888-504.123-0.293-278.574-226.255-504.221-504.83-504.123v0z" />
<glyph unicode="&#xe929;" d="M1024.21 448.248c0.104-207.564-125.177-394.633-317.148-473.563s-412.604-34.087-558.532 113.52c-145.928 147.607-188.243 368.74-107.12 559.795l328.317-176.621 161.379 47.697 127.31-70.828 290.841 118.345 66.345-22.414c1.434-7.89 2.869-16.138 3.945-24.207 3.284-23.764 4.842-47.735 4.662-71.724v0z" />
<glyph unicode="&#xe92a;" d="M920.927 141.448c-11.16-14.874-23.132-29.121-35.862-42.676-7.89-8.428-16.138-16.676-24.566-24.386l-10.041-9.145c-81.525-72.139-184.022-116.255-292.455-125.876-15.421-1.255-31.021-2.152-46.979-2.152-124.912 0.008-245.487 45.813-338.897 128.745l-12.552 11.655c-14.146 13.31-27.498 27.44-39.986 42.317-1.359 1.404-2.617 2.902-3.766 4.483-3.048 3.586-5.738 6.993-8.607 10.759s-4.483 5.917-6.814 8.966c-0.517 0.522-0.942 1.128-1.255 1.793l-0.897 1.076-4.841 6.814c-0.517 0.522-0.942 1.128-1.255 1.793-1.972 2.69-4.124 5.559-5.917 8.428v0c-1.434 2.152-3.048 4.303-4.303 6.455s-4.303 6.634-6.455 10.041c-2.152 3.407-3.048 4.841-4.303 7.352s-5.2 8.786-7.71 13.269l-6.276 11.476c0 0 0 1.255-0.897 1.972-1.673 2.957-3.17 6.011-4.483 9.145-0.059 0.416-0.059 0.839 0 1.255-0.668 0.826-1.102 1.817-1.255 2.869-1.614 3.048-3.228 6.455-4.662 9.683-4.662 10.221-8.966 20.441-12.731 31.021-0.897 1.972-1.793 4.303-2.51 6.276-2.152 5.917-4.124 11.655-6.097 17.931s-2.869 9.145-4.124 13.807c-0.583 1.824-1.062 3.68-1.434 5.559-1.793 5.917-3.228 11.834-4.662 17.931l302.138-89.655 163.531 5.559 129.462-56.303 145.421 21.876 139.145-22.593 26.897-47.517z" />
<glyph unicode="&#xe92b;" d="M885.244 98.772c-7.89-8.428-16.138-16.676-24.566-24.386l-10.041-9.145c-81.573-72.174-184.138-116.292-292.634-125.876-15.421-1.255-31.021-2.152-46.979-2.152-124.912 0.008-245.487 45.813-338.897 128.745l-12.552 11.655c-14.146 13.31-27.498 27.44-39.986 42.317-1.359 1.404-2.617 2.902-3.766 4.483-3.048 3.586-5.738 6.993-8.607 10.759s-4.483 5.917-6.814 8.966c-0.517 0.522-0.942 1.128-1.255 1.793l-0.897 1.076-4.841 6.814c-0.517 0.522-0.942 1.128-1.255 1.793-1.972 2.69-4.124 5.559-5.917 8.428v0c-1.434 2.152-3.048 4.303-4.303 6.455s-4.303 6.634-6.455 10.041c-2.152 3.407-3.048 4.841-4.303 7.352s-5.2 8.786-7.71 13.269l-6.276 11.476c0 0 0 1.255-0.897 1.972-1.673 2.957-3.17 6.011-4.483 9.145-0.059 0.416-0.059 0.839 0 1.255h135.738l106.152-43.752 28.51-46.262 209.972 26.359 61.683-39.090 115.655 8.069h45.724l63.297 37.834 45.903-32.455 20.8-36.938z" />
<glyph unicode="&#xe92c;" d="M558.003-60.634c-15.421-1.255-31.021-2.152-46.979-2.152-124.912 0.008-245.487 45.813-338.897 128.745l-12.552 11.655c-14.146 13.31-27.498 27.44-39.986 42.317-1.359 1.404-2.617 2.902-3.766 4.483-3.048 3.586-5.738 6.993-8.607 10.759s-4.483 5.917-6.814 8.966c-0.517 0.522-0.942 1.128-1.255 1.793h101.669l50.386-79.972 211.945 57.021 43.214-83.559 51.641-100.055z" />
<glyph unicode="&#xe92d;" d="M860.679 74.386l-10.041-9.145c-81.573-72.174-184.138-116.292-292.634-125.876-15.421-1.255-31.021-2.152-46.979-2.152-61.26 0.029-122.010 11.146-179.31 32.814l331.366 131.255 114.579 4.124 44.648 20.8 38.372-51.821z" />
<glyph unicode="&#xe92e;" d="M271.713 181.407l-26.836 483.575 15.36 1.059 26.836-483.575z" />
<glyph unicode="&#xe92f;" d="M534.422 457.887l51.377-119.349 67.796-96.044 28.425-29.661 43.432 31.956-75.211 123.763-28.248 148.127z" />
<glyph unicode="&#xe930;" d="M499.994 510.676l-4.061-19.244-73.446-79.978-12.006-43.608 58.086-137.181 54.731 18.185-17.126 59.498-10.24 3.354 5.826 6.532-7.945 2.825 7.592 5.473-12.712 50.141 101.694 73.446 29.837 30.014 2.472 34.074-10.417 31.25z" />
<glyph unicode="&#xe931;" d="M408.011 675.046l-16.243-5.12-6.886-24.188 6.532-16.419 21.363-10.063 9.71 6.003z" />
<glyph unicode="&#xe932;" d="M427.255 687.404l-20.303-3.708-4.237-20.127 6.356-19.95 24.894 7.239z" />
<glyph unicode="&#xe933;" d="M471.217 864.662c29.642 0 53.672-24.030 53.672-53.672v-67.020c0-4.329-3.509-7.838-7.838-7.838h-91.668c-4.329 0-7.838 3.509-7.838 7.838v67.020c0 29.642 24.030 53.672 53.672 53.672z" />
<glyph unicode="&#xe934;" d="M501.054 815.757v0l-3.354-4.59-18.538-24.717-7.945 6.003 21.892 29.131 1.766 2.472 4.59-3.354c0.19-1.391 0.546-2.754 1.059-4.061l0.53-0.883z" />
<glyph unicode="&#xe935;" d="M444.369 816.603l7.89 5.958 23.833-31.559-7.89-5.958z" />
<glyph unicode="&#xe936;" d="M534.422 817.876c0.292 14.135-5.195 27.777-15.192 37.774s-23.639 15.483-37.774 15.192h-22.422c-29.252 0-52.966-23.713-52.966-52.966h50.847c0 5.655 4.585 10.24 10.24 10.24h16.419c2.466 0.042 4.859-0.84 6.709-2.472 1.273-1.129 2.296-2.512 3.001-4.061 0.731-1.163 1.323-2.407 1.766-3.708 0.883-2.295 1.766-4.59 2.825-6.709 3.884-7.239 10.063-13.418 28.072-16.243 3.58-0.385 7.19-0.385 10.77 0l-2.295 22.952zM449.677 825.291c-7.062-2.648-11.829-0.883-13.241 3.001s0 8.298 7.592 11.123c7.592 2.825 15.713 2.472 17.655-1.412s-5.12-9.887-12.006-12.712zM509.705 812.403c-1.584-0.762-3.414-0.834-5.053-0.198s-2.942 1.922-3.598 3.553v0 0.883c-0.513 1.307-0.869 2.67-1.059 4.061 0 3.708 0 7.415 2.825 8.474s8.121-2.472 10.24-7.062c1.018-1.7 1.232-3.764 0.585-5.637s-2.089-3.364-3.939-4.074v0z" />
<glyph unicode="&#xe937;" d="M509.881 812.403c-1.562-0.772-3.372-0.869-5.008-0.268s-2.953 1.847-3.643 3.446c-0.032 0.352-0.032 0.707 0 1.059-0.596 1.291-1.012 2.657-1.236 4.061 0 3.708 0 7.415 2.825 8.474s8.298-2.472 10.417-7.062c1.018-1.7 1.232-3.764 0.585-5.637s-2.089-3.364-3.939-4.074v0z" />
<glyph unicode="&#xe938;" d="M449.677 825.468c-6.886-2.825-11.652-1.059-13.241 2.825s0 8.298 7.768 11.123c7.768 2.825 15.713 2.472 17.655-1.412s-5.12-9.887-12.182-12.535z" />
<glyph unicode="&#xe939;" d="M524.888 795.101v-10.24l-15.89 5.12-15.36 14.83h-19.421l-12.359-10.77-30.897 6.003-13.418 9.357v8.121h39.194c0 5.655 4.585 10.24 10.24 10.24h16.419c2.504 0.069 4.928-0.887 6.709-2.648 1.322-1.011 2.357-2.35 3.001-3.884 0.731-1.163 1.323-2.407 1.766-3.708 0.883-2.295 1.766-4.59 2.825-6.709 3.708-6.886 9.887-12.888 27.189-15.713z" />
<glyph unicode="&#xe93a;" d="M445.793 731.366l-11.829 7.592 33.721 53.142 11.829-7.592z" />
<glyph unicode="&#xe93b;" d="M483.752 790.157c0-3.658-1.952-7.039-5.12-8.868s-7.072-1.829-10.24 0c-3.168 1.829-5.12 5.21-5.12 8.868s1.952 7.039 5.12 8.868c3.168 1.829 7.072 1.829 10.24 0s5.12-5.21 5.12-8.868v0z" />
<glyph unicode="&#xe93c;" d="M478.808 790.157c0-3.315-2.688-6.003-6.003-6.003s-6.003 2.688-6.003 6.003c0 3.315 2.688 6.003 6.003 6.003s6.003-2.688 6.003-6.003v0z" />
<glyph unicode="&#xe93d;" d="M433.964 729.247l89.512 32.486 41.137-41.666 53.495-175.316-12.888-23.481-111.404-29.484-53.672 115.288-17.302 71.15 23.834 34.428z" />
<glyph unicode="&#xe93e;" d="M653.594 242.494l-67.796 96.044-35.487 82.626 40.077 28.778 29.837 30.19 2.472 33.015 9.887-43.608-5.826-62.852-25.423-28.425v-35.134l46.963-82.45z" />
<glyph unicode="&#xe93f;" d="M312.673 625.434l-19.421 2.472-41.666 13.418-15.537-7.945-3.001-6.886 3.001-41.313 12.888-2.648 40.783 4.061 17.126-2.119z" />
<glyph unicode="&#xe940;" d="M514.119 669.749l-75.741-92.69c-6.603-7.584-15.341-12.998-25.070-15.537-2.348-0.229-4.714-0.229-7.062 0l-108.050 17.655 7.768 53.848 84.568-8.828 72.033 91.983c7.874 9.803 20.485 14.503 32.854 12.246s22.506-11.111 26.409-23.063c3.903-11.952 0.943-25.082-7.71-34.204v-1.412z" />
<glyph unicode="&#xe941;" d="M519.239 677.87l-45.197-110.168-10.946-9.887-2.295 4.943-12.359 26.836 65.677 80.331c1.096 1.175 2.045 2.479 2.825 3.884 0.897 1.275 1.666 2.635 2.295 4.061v0z" />
<glyph unicode="&#xe942;" d="M705.148 565.054c1.859-4.42 1.547-9.454-0.843-13.61s-6.584-6.959-11.339-7.576l-60.734-18.714c-8.038-2.419-16.529 2.062-19.068 10.063l-55.084 179.023c-1.211 3.863-0.83 8.050 1.060 11.63s5.131 6.258 9.004 7.438l75.211 23.128c8.038 2.419 16.529-2.062 19.068-10.063l42.726-181.319z" />
<glyph unicode="&#xe943;" d="M671.956 601.953c3.99-13.791-3.893-28.218-17.655-32.309v0c-6.626-1.966-13.762-1.208-19.827 2.106s-10.557 8.911-12.482 15.549l-12.888 45.197c-1.966 6.626-1.208 13.762 2.106 19.827s8.911 10.557 15.549 12.482v0c6.626 1.966 13.762 1.208 19.827-2.106s10.557-8.911 12.482-15.549l12.888-45.197z" />
<glyph unicode="&#xe944;" d="M659.774 651.917l3.178-11.476c2.234-7.235 1.45-15.066-2.174-21.714s-9.779-11.552-17.070-13.596c-7.259-2.228-15.111-1.42-21.764 2.24s-11.54 9.858-13.546 17.181l-3.178 11.476c-2.234 7.235-1.45 15.066 2.174 21.714s9.779 11.552 17.070 13.596c7.235 2.183 15.043 1.376 21.678-2.24s11.545-9.741 13.632-17.004v-0.177z" />
<glyph unicode="&#xe945;" d="M612.988 535.57v0l-6.532-12.182-17.655 23.481-17.655 79.978-4.237 19.95-12.535 17.655-11.299 16.066v11.299l-2.472 30.19-25.953 36.723 9.004 3.178 35.31-35.31c-1.858-3.598-2.238-7.779-1.059-11.652l55.084-179.377z" />
<glyph unicode="&#xe946;" d="M729.688 237.55l33.192-43.785-88.276-66.207c-5.467 7.271-7.818 16.418-6.532 25.423 1.155 8.973 5.942 17.078 13.241 22.422 0.559 0.678 1.213 1.273 1.942 1.766 1.595 1.277 3.073 2.695 4.414 4.237 0.572 0.698 1.047 1.47 1.412 2.295 1.23 1.57 2.131 3.371 2.648 5.297 0.152 0.936 0.152 1.889 0 2.825 0.462 2.034 0.462 4.145 0 6.179-0.345 1.419-0.879 2.785-1.589 4.061l-2.472 4.061 42.019 31.426z" />
<glyph unicode="&#xe947;" d="M765.881 196.767l6.179-8.298-34.957-26.659-3.178 4.237-8.121-6.179 3.178-4.237-49.964-37.782-6.356 8.298z" />
<glyph unicode="&#xe948;" d="M680.334 211.279l45.722 34.668 8.854-11.677-45.722-34.668z" />
<glyph unicode="&#xe949;" d="M705.324 192.53c-0.683-0.258-1.436-0.258-2.119 0h-12.888c-0.83 0.043-1.605 0.428-2.141 1.064s-0.783 1.465-0.684 2.29c0.181 1.616 1.552 2.835 3.178 2.825h12.888c1.686-0.094 3.004-1.49 3.001-3.178 0.023-1.129-0.425-2.216-1.236-3.001v0z" />
<glyph unicode="&#xe94a;" d="M702.146 181.23c-0.951-0.446-2.051-0.446-3.001 0l-10.946 4.061c-0.752 0.277-1.361 0.844-1.693 1.574s-0.358 1.561-0.072 2.31c0.239 0.739 0.772 1.348 1.473 1.682s1.51 0.364 2.234 0.084l11.123-4.061c0.785-0.233 1.43-0.794 1.769-1.539s0.338-1.601-0.003-2.345c-0.137-0.655-0.441-1.263-0.883-1.766v0z" />
<glyph unicode="&#xe94b;" d="M695.261 170.814c-1.12-0.951-2.764-0.951-3.884 0l-8.298 7.945c-0.608 0.536-0.956 1.308-0.956 2.119s0.348 1.582 0.956 2.119c1.171 1.167 3.066 1.167 4.237 0l8.298-7.768c0.608-0.536 0.956-1.308 0.956-2.119s-0.348-1.582-0.956-2.119l-0.353-0.177z" />
<glyph unicode="&#xe94c;" d="M732.513 234.372l30.19-39.901-20.833-15.89-3.531 4.767 0.706 12.359 4.767 8.298-12.006 16.066-40.96-17.479z" />
<glyph unicode="&#xe94d;" d="M526.124 239.139l12.888-58.262-116.877-25.777c-2.057 9.723-0.219 19.866 5.12 28.248 5.275 8.321 13.672 14.174 23.305 16.243h2.825c2.118 0.599 4.184 1.367 6.179 2.295l2.472 1.412c1.96 1.076 3.697 2.513 5.12 4.237 0.701 0.78 1.35 1.606 1.942 2.472 1.176 1.932 1.9 4.105 2.119 6.356 0.175 1.584 0.175 3.183 0 4.767 0.124 1.704 0.124 3.416 0 5.12l54.908 12.888z" />
<glyph unicode="&#xe94e;" d="M542.897 181.583l2.472-11.123-46.786-10.24-1.236 5.473-10.77-2.295 1.236-5.65-66.737-14.654-2.472 11.123z" />
<glyph unicode="&#xe94f;" d="M465.487 237.131l61.030 13.474 3.464-15.688-61.030-13.474z" />
<glyph unicode="&#xe950;" d="M481.103 205.241c-0.744-0.256-1.551-0.256-2.295 0l-12.359 6.709c-1.599 0.925-2.215 2.926-1.412 4.59 0.444 0.774 1.177 1.34 2.038 1.571s1.78 0.111 2.552-0.336l12.359-6.709c0.762-0.409 1.325-1.111 1.558-1.944s0.117-1.725-0.322-2.47c-0.442-0.78-1.228-1.305-2.119-1.412z" />
<glyph unicode="&#xe951;" d="M472.806 195.531c-0.918-0.575-2.084-0.575-3.001 0l-9.004 9.004c-0.677 0.57-1.067 1.41-1.067 2.295s0.391 1.725 1.067 2.295c1.291 1.211 3.3 1.211 4.59 0l9.004-9.004c0.677-0.57 1.067-1.41 1.067-2.295s-0.391-1.725-1.067-2.295c-0.505-0.227-1.084-0.227-1.589 0v0z" />
<glyph unicode="&#xe952;" d="M461.153 188.116c-1.587-0.319-3.188 0.481-3.884 1.942l-4.59 11.652c-0.347 0.794-0.355 1.695-0.022 2.495s0.979 1.429 1.787 1.742c0.819 0.353 1.745 0.365 2.574 0.034s1.49-0.979 1.84-1.8l4.59-11.652c0.621-1.657-0.151-3.512-1.766-4.237l-0.53-0.177z" />
<glyph unicode="&#xe953;" d="M527.183 234.019l11.652-53.319-27.719-6.003-1.412 6.179 6.356 12.006 8.474 6.003-4.59 21.363-48.552 1.412z" />
<glyph unicode="&#xe954;" d="M305.258 626.67l-6.003-41.313-9.534 1.236 9.534 40.607z" />
<glyph unicode="&#xe955;" d="M243.112 631.437l-1.412-7.239 3.178-5.826-3.178-6.532 4.943-5.65-2.648-7.415 2.648-7.415-2.648-4.767-4.767 1.059-1.589 38.488z" />
<glyph unicode="&#xe956;" d="M652.888 753.964c-13.187-26.655-42.102-41.719-71.503-37.252-33.015 4.767-62.323 31.426-54.731 67.619 4.9 28.999 28.205 51.372 57.379 55.084 10.063 1.589 4.943-6.886-2.119-7.945h-1.236c-17.736-5.047-31.786-18.608-37.458-36.154s-2.217-36.765 9.209-51.239c27.542-30.19 87.040-22.599 90.394 24.011 2.973 17.46-4.822 34.998-19.774 44.491-22.775 11.123-58.086 4.237-61.087-25.070-1.182-6.732-0.385-13.663 2.295-19.95 3.531-6.532 29.131-35.31 35.31-6.356 1.412 6.179 3.354 15.713-1.942 21.010-9.181 9.357-13.771-4.414-13.418-12.182s-14.477-8.651-14.654-4.061c0 16.596 17.655 38.665 35.31 27.012 22.246-13.771 7.768-44.138-13.418-49.964-13.081-3.059-26.794 1.198-35.843 11.127s-12.020 23.976-7.765 36.719c5.908 14.586 17.514 26.129 32.132 31.956 10.598 4.65 22.366 5.944 33.721 3.708 16.32-1.885 30.691-11.618 38.499-26.072s8.067-31.81 0.696-46.491v0z" />
<glyph unicode="&#xe957;" d="M642.825 767.206c-3.354-46.61-62.852-54.201-90.394-24.011-11.426 14.473-14.881 33.692-9.209 51.239s19.721 31.107 37.458 36.154l-4.061-7.062 4.061-1.589c-14.619-5.827-26.225-17.37-32.132-31.956-4.255-12.742-1.284-26.79 7.765-36.719s22.762-14.186 35.843-11.127c21.186 5.826 35.31 36.193 13.418 49.964-18.714 11.652-35.31-10.417-35.31-27.012 0-4.59 14.83-1.589 14.654 4.061s4.237 21.539 13.418 12.182c5.297-5.297 3.354-14.83 1.942-21.010-6.709-28.778-32.309 0-35.31 6.356-2.68 6.288-3.477 13.218-2.295 19.95 3.001 29.308 38.312 36.193 61.087 25.070 14.683-9.681 22.184-27.182 19.068-44.491v0z" />
<glyph unicode="&#xe958;" d="M618.108 528.508l-9.71-20.303-88.099-20.303-62.323-37.782 37.959 41.313 0.177 1.059 81.214 21.363 33.898 18.361 3.354 6.356 1.236-3.708z" />
<glyph unicode="&#xe959;" d="M486.047 378.439l-8.651-14.124-6.356 1.942 9.357 9.71-24.541-7.415 1.236 6.886 22.952 3.001-21.363 6.886 4.414 6.709z" />
<glyph unicode="&#xe95a;" d="M513.969 948.185c277.332 0 502.154-224.822 502.154-502.154s-224.822-502.154-502.154-502.154c-277.332 0-502.154 224.822-502.154 502.154s224.822 502.154 502.154 502.154z" />
<glyph unicode="&#xe95b;" d="M511.986-58.093c-278.327 0.39-503.676 226.266-503.417 504.594s226.031 503.782 504.358 503.652c278.327-0.13 503.888-225.795 503.888-504.123-0.293-278.574-226.255-504.221-504.83-504.123v0z" />
<glyph unicode="&#xe95c;" d="M1024.21 446.279c0.104-207.564-125.177-394.633-317.148-473.563s-412.604-34.087-558.532 113.52c-145.928 147.607-188.243 368.74-107.12 559.795l328.317-176.621 161.379 47.697 127.31-70.828 290.841 118.345 66.345-22.414c1.434-7.89 2.869-16.138 3.945-24.207 3.284-23.764 4.842-47.735 4.662-71.724v0z" />
<glyph unicode="&#xe95d;" d="M920.927 139.479c-11.16-14.874-23.132-29.121-35.862-42.676-7.89-8.428-16.138-16.676-24.566-24.386l-10.041-9.145c-81.525-72.139-184.022-116.255-292.455-125.876-15.421-1.255-31.021-2.152-46.979-2.152-124.912 0.008-245.487 45.813-338.897 128.745l-12.552 11.655c-14.146 13.31-27.498 27.44-39.986 42.317-1.359 1.404-2.617 2.902-3.766 4.483-3.048 3.586-5.738 6.993-8.607 10.759s-4.483 5.917-6.814 8.966c-0.517 0.522-0.942 1.128-1.255 1.793l-0.897 1.076-4.841 6.814c-0.517 0.522-0.942 1.128-1.255 1.793-1.972 2.69-4.124 5.559-5.917 8.428v0c-1.434 2.152-3.048 4.303-4.303 6.455s-4.303 6.634-6.455 10.041c-2.152 3.407-3.048 4.841-4.303 7.352s-5.2 8.786-7.71 13.269l-6.276 11.476c0 0 0 1.255-0.897 1.972-1.673 2.957-3.17 6.011-4.483 9.145-0.059 0.416-0.059 0.839 0 1.255-0.668 0.826-1.102 1.817-1.255 2.869-1.614 3.048-3.228 6.455-4.662 9.683-4.662 10.221-8.966 20.441-12.731 31.021-0.897 1.972-1.793 4.303-2.51 6.276-2.152 5.917-4.124 11.655-6.097 17.931s-2.869 9.145-4.124 13.807c-0.583 1.824-1.062 3.68-1.434 5.559-1.793 5.917-3.228 11.834-4.662 17.931l302.138-89.655 163.531 5.559 129.462-56.303 145.421 21.876 139.145-22.593 26.897-47.517z" />
<glyph unicode="&#xe95e;" d="M885.244 96.803c-7.89-8.428-16.138-16.676-24.566-24.386l-10.041-9.145c-81.573-72.174-184.138-116.292-292.634-125.876-15.421-1.255-31.021-2.152-46.979-2.152-124.912 0.008-245.487 45.813-338.897 128.745l-12.552 11.655c-14.146 13.31-27.498 27.44-39.986 42.317-1.359 1.404-2.617 2.902-3.766 4.483-3.048 3.586-5.738 6.993-8.607 10.759s-4.483 5.917-6.814 8.966c-0.517 0.522-0.942 1.128-1.255 1.793l-0.897 1.076-4.841 6.814c-0.517 0.522-0.942 1.128-1.255 1.793-1.972 2.69-4.124 5.559-5.917 8.428v0c-1.434 2.152-3.048 4.303-4.303 6.455s-4.303 6.634-6.455 10.041c-2.152 3.407-3.048 4.841-4.303 7.352s-5.2 8.786-7.71 13.269l-6.276 11.476c0 0 0 1.255-0.897 1.972-1.673 2.957-3.17 6.011-4.483 9.145-0.059 0.416-0.059 0.839 0 1.255h135.738l106.152-43.752 28.51-46.262 209.972 26.359 61.683-39.090 115.655 8.069h45.724l63.297 37.834 45.903-32.455 20.8-36.938z" />
<glyph unicode="&#xe95f;" d="M558.003-62.604c-15.421-1.255-31.021-2.152-46.979-2.152-124.912 0.008-245.487 45.813-338.897 128.745l-12.552 11.655c-14.146 13.31-27.498 27.44-39.986 42.317-1.359 1.404-2.617 2.902-3.766 4.483-3.048 3.586-5.738 6.993-8.607 10.759s-4.483 5.917-6.814 8.966c-0.517 0.522-0.942 1.128-1.255 1.793h101.669l50.386-79.972 211.945 57.021 43.214-83.559 51.641-100.055z" />
<glyph unicode="&#xe960;" d="M860.679 72.417l-10.041-9.145c-81.573-72.174-184.138-116.292-292.634-125.876-15.421-1.255-31.021-2.152-46.979-2.152-61.26 0.029-122.010 11.146-179.31 32.814l331.366 131.255 114.579 4.124 44.648 20.8 38.372-51.821z" />
<glyph unicode="&#xe961;" d="M271.713 179.438l-26.836 483.575 15.36 1.059 26.836-483.575z" />
<glyph unicode="&#xe962;" d="M534.422 455.918l51.377-119.349 67.796-96.044 28.425-29.661 43.432 31.956-75.211 123.763-28.248 148.127z" />
<glyph unicode="&#xe963;" d="M499.994 508.707l-4.061-19.244-73.446-79.978-12.006-43.608 58.086-137.181 54.731 18.185-17.126 59.498-10.24 3.354 5.826 6.532-7.945 2.825 7.592 5.473-12.712 50.141 101.694 73.446 29.837 30.014 2.472 34.074-10.417 31.25z" />
<glyph unicode="&#xe964;" d="M408.011 673.076l-16.243-5.12-6.886-24.188 6.532-16.419 21.363-10.063 9.71 6.003z" />
<glyph unicode="&#xe965;" d="M427.255 685.435l-20.303-3.708-4.237-20.127 6.356-19.95 24.894 7.239z" />
<glyph unicode="&#xe966;" d="M471.217 862.693c29.642 0 53.672-24.030 53.672-53.672v-67.020c0-4.329-3.509-7.838-7.838-7.838h-91.668c-4.329 0-7.838 3.509-7.838 7.838v67.020c0 29.642 24.030 53.672 53.672 53.672z" />
<glyph unicode="&#xe967;" d="M501.054 813.788v0l-3.354-4.59-18.538-24.717-7.945 6.003 21.892 29.131 1.766 2.472 4.59-3.354c0.19-1.391 0.546-2.754 1.059-4.061l0.53-0.883z" />
<glyph unicode="&#xe968;" d="M444.369 814.634l7.89 5.958 23.833-31.559-7.89-5.958z" />
<glyph unicode="&#xe969;" d="M534.422 815.907c0.292 14.135-5.195 27.777-15.192 37.774s-23.639 15.483-37.774 15.192h-22.422c-29.252 0-52.966-23.713-52.966-52.966h50.847c0 5.655 4.585 10.24 10.24 10.24h16.419c2.466 0.042 4.859-0.84 6.709-2.472 1.273-1.129 2.296-2.512 3.001-4.061 0.731-1.163 1.323-2.407 1.766-3.708 0.883-2.295 1.766-4.59 2.825-6.709 3.884-7.239 10.063-13.418 28.072-16.243 3.58-0.385 7.19-0.385 10.77 0l-2.295 22.952zM449.677 823.322c-7.062-2.648-11.829-0.883-13.241 3.001s0 8.298 7.592 11.123c7.592 2.825 15.713 2.472 17.655-1.412s-5.12-9.887-12.006-12.712zM509.705 810.434c-1.584-0.762-3.414-0.834-5.053-0.198s-2.942 1.922-3.598 3.553v0 0.883c-0.513 1.307-0.869 2.67-1.059 4.061 0 3.708 0 7.415 2.825 8.474s8.121-2.472 10.24-7.062c1.018-1.7 1.232-3.764 0.585-5.637s-2.089-3.364-3.939-4.074v0z" />
<glyph unicode="&#xe96a;" d="M509.881 810.434c-1.562-0.772-3.372-0.869-5.008-0.268s-2.953 1.847-3.643 3.446c-0.032 0.352-0.032 0.707 0 1.059-0.596 1.291-1.012 2.657-1.236 4.061 0 3.708 0 7.415 2.825 8.474s8.298-2.472 10.417-7.062c1.018-1.7 1.232-3.764 0.585-5.637s-2.089-3.364-3.939-4.074v0z" />
<glyph unicode="&#xe96b;" d="M449.677 823.498c-6.886-2.825-11.652-1.059-13.241 2.825s0 8.298 7.768 11.123c7.768 2.825 15.713 2.472 17.655-1.412s-5.12-9.887-12.182-12.535z" />
<glyph unicode="&#xe96c;" d="M524.888 793.131v-10.24l-15.89 5.12-15.36 14.83h-19.421l-12.359-10.77-30.897 6.003-13.418 9.357v8.121h39.194c0 5.655 4.585 10.24 10.24 10.24h16.419c2.504 0.069 4.928-0.887 6.709-2.648 1.322-1.011 2.357-2.35 3.001-3.884 0.731-1.163 1.323-2.407 1.766-3.708 0.883-2.295 1.766-4.59 2.825-6.709 3.708-6.886 9.887-12.888 27.189-15.713z" />
<glyph unicode="&#xe96d;" d="M445.793 729.396l-11.829 7.592 33.721 53.142 11.829-7.592z" />
<glyph unicode="&#xe96e;" d="M483.752 788.188c0-3.658-1.952-7.039-5.12-8.868s-7.072-1.829-10.24 0c-3.168 1.829-5.12 5.21-5.12 8.868s1.952 7.039 5.12 8.868c3.168 1.829 7.072 1.829 10.24 0s5.12-5.21 5.12-8.868v0z" />
<glyph unicode="&#xe96f;" d="M478.808 788.188c0-3.315-2.688-6.003-6.003-6.003s-6.003 2.688-6.003 6.003c0 3.315 2.688 6.003 6.003 6.003s6.003-2.688 6.003-6.003v0z" />
<glyph unicode="&#xe970;" d="M433.964 727.278l89.512 32.486 41.137-41.666 53.495-175.316-12.888-23.481-111.404-29.484-53.672 115.288-17.302 71.15 23.834 34.428z" />
<glyph unicode="&#xe971;" d="M653.594 240.525l-67.796 96.044-35.487 82.626 40.077 28.778 29.837 30.19 2.472 33.015 9.887-43.608-5.826-62.852-25.423-28.425v-35.134l46.963-82.45z" />
<glyph unicode="&#xe972;" d="M312.673 623.465l-19.421 2.472-41.666 13.418-15.537-7.945-3.001-6.886 3.001-41.313 12.888-2.648 40.783 4.061 17.126-2.119z" />
<glyph unicode="&#xe973;" d="M514.119 667.78l-75.741-92.69c-6.603-7.584-15.341-12.998-25.070-15.537-2.348-0.229-4.714-0.229-7.062 0l-108.050 17.655 7.768 53.848 84.568-8.828 72.033 91.983c7.874 9.803 20.485 14.503 32.854 12.246s22.506-11.111 26.409-23.063c3.903-11.952 0.943-25.082-7.71-34.204v-1.412z" />
<glyph unicode="&#xe974;" d="M519.239 675.901l-45.197-110.168-10.946-9.887-2.295 4.943-12.359 26.836 65.677 80.331c1.096 1.175 2.045 2.479 2.825 3.884 0.897 1.275 1.666 2.635 2.295 4.061v0z" />
<glyph unicode="&#xe975;" d="M705.148 563.085c1.859-4.42 1.547-9.454-0.843-13.61s-6.584-6.959-11.339-7.576l-60.734-18.714c-8.038-2.419-16.529 2.062-19.068 10.063l-55.084 179.023c-1.211 3.863-0.83 8.050 1.060 11.63s5.131 6.258 9.004 7.438l75.211 23.128c8.038 2.419 16.529-2.062 19.068-10.063l42.726-181.319z" />
<glyph unicode="&#xe976;" d="M671.956 599.984c3.99-13.791-3.893-28.218-17.655-32.309v0c-6.626-1.966-13.762-1.208-19.827 2.106s-10.557 8.911-12.482 15.549l-12.888 45.197c-1.966 6.626-1.208 13.762 2.106 19.827s8.911 10.557 15.549 12.482v0c6.626 1.966 13.762 1.208 19.827-2.106s10.557-8.911 12.482-15.549l12.888-45.197z" />
<glyph unicode="&#xe977;" d="M659.774 649.948l3.178-11.476c2.234-7.235 1.45-15.066-2.174-21.714s-9.779-11.552-17.070-13.596c-7.259-2.228-15.111-1.42-21.764 2.24s-11.54 9.858-13.546 17.181l-3.178 11.476c-2.234 7.235-1.45 15.066 2.174 21.714s9.779 11.552 17.070 13.596c7.235 2.183 15.043 1.376 21.678-2.24s11.545-9.741 13.632-17.004v-0.177z" />
<glyph unicode="&#xe978;" d="M612.988 533.6v0l-6.532-12.182-17.655 23.481-17.655 79.978-4.237 19.95-12.535 17.655-11.299 16.066v11.299l-2.472 30.19-25.953 36.723 9.004 3.178 35.31-35.31c-1.858-3.598-2.238-7.779-1.059-11.652l55.084-179.377z" />
<glyph unicode="&#xe979;" d="M729.688 235.581l33.192-43.785-88.276-66.207c-5.467 7.271-7.818 16.418-6.532 25.423 1.155 8.973 5.942 17.078 13.241 22.422 0.559 0.678 1.213 1.273 1.942 1.766 1.595 1.277 3.073 2.695 4.414 4.237 0.572 0.698 1.047 1.47 1.412 2.295 1.23 1.57 2.131 3.371 2.648 5.297 0.152 0.936 0.152 1.889 0 2.825 0.462 2.034 0.462 4.145 0 6.179-0.345 1.419-0.879 2.785-1.589 4.061l-2.472 4.061 42.019 31.426z" />
<glyph unicode="&#xe97a;" d="M765.881 194.798l6.179-8.298-34.957-26.659-3.178 4.237-8.121-6.179 3.178-4.237-49.964-37.782-6.356 8.298z" />
<glyph unicode="&#xe97b;" d="M680.334 209.31l45.722 34.668 8.854-11.677-45.722-34.668z" />
<glyph unicode="&#xe97c;" d="M705.324 190.56c-0.683-0.258-1.436-0.258-2.119 0h-12.888c-0.83 0.043-1.605 0.428-2.141 1.064s-0.783 1.465-0.684 2.29c0.181 1.616 1.552 2.835 3.178 2.825h12.888c1.686-0.094 3.004-1.49 3.001-3.178 0.023-1.129-0.425-2.216-1.236-3.001v0z" />
<glyph unicode="&#xe97d;" d="M702.146 179.261c-0.951-0.446-2.051-0.446-3.001 0l-10.946 4.061c-0.752 0.277-1.361 0.844-1.693 1.574s-0.358 1.561-0.072 2.31c0.239 0.739 0.772 1.348 1.473 1.682s1.51 0.364 2.234 0.084l11.123-4.061c0.785-0.233 1.43-0.794 1.769-1.539s0.338-1.601-0.003-2.345c-0.137-0.655-0.441-1.263-0.883-1.766v0z" />
<glyph unicode="&#xe97e;" d="M695.261 168.845c-1.12-0.951-2.764-0.951-3.884 0l-8.298 7.945c-0.608 0.536-0.956 1.308-0.956 2.119s0.348 1.582 0.956 2.119c1.171 1.167 3.066 1.167 4.237 0l8.298-7.768c0.608-0.536 0.956-1.308 0.956-2.119s-0.348-1.582-0.956-2.119l-0.353-0.177z" />
<glyph unicode="&#xe97f;" d="M732.513 232.403l30.19-39.901-20.833-15.89-3.531 4.767 0.706 12.359 4.767 8.298-12.006 16.066-40.96-17.479z" />
<glyph unicode="&#xe980;" d="M526.124 237.17l12.888-58.262-116.877-25.777c-2.057 9.723-0.219 19.866 5.12 28.248 5.275 8.321 13.672 14.174 23.305 16.243h2.825c2.118 0.599 4.184 1.367 6.179 2.295l2.472 1.412c1.96 1.076 3.697 2.513 5.12 4.237 0.701 0.78 1.35 1.606 1.942 2.472 1.176 1.932 1.9 4.105 2.119 6.356 0.175 1.584 0.175 3.183 0 4.767 0.124 1.704 0.124 3.416 0 5.12l54.908 12.888z" />
<glyph unicode="&#xe981;" d="M542.897 179.614l2.472-11.123-46.786-10.24-1.236 5.473-10.77-2.295 1.236-5.65-66.737-14.654-2.472 11.123z" />
<glyph unicode="&#xe982;" d="M465.487 235.162l61.030 13.474 3.464-15.688-61.030-13.474z" />
<glyph unicode="&#xe983;" d="M481.103 203.272c-0.744-0.256-1.551-0.256-2.295 0l-12.359 6.709c-1.599 0.925-2.215 2.926-1.412 4.59 0.444 0.774 1.177 1.34 2.038 1.571s1.78 0.111 2.552-0.336l12.359-6.709c0.762-0.409 1.325-1.111 1.558-1.944s0.117-1.725-0.322-2.47c-0.442-0.78-1.228-1.305-2.119-1.412z" />
<glyph unicode="&#xe984;" d="M472.806 193.562c-0.918-0.575-2.084-0.575-3.001 0l-9.004 9.004c-0.677 0.57-1.067 1.41-1.067 2.295s0.391 1.725 1.067 2.295c1.291 1.211 3.3 1.211 4.59 0l9.004-9.004c0.677-0.57 1.067-1.41 1.067-2.295s-0.391-1.725-1.067-2.295c-0.505-0.227-1.084-0.227-1.589 0v0z" />
<glyph unicode="&#xe985;" d="M461.153 186.147c-1.587-0.319-3.188 0.481-3.884 1.942l-4.59 11.652c-0.347 0.794-0.355 1.695-0.022 2.495s0.979 1.429 1.787 1.742c0.819 0.353 1.745 0.365 2.574 0.034s1.49-0.979 1.84-1.8l4.59-11.652c0.621-1.657-0.151-3.512-1.766-4.237l-0.53-0.177z" />
<glyph unicode="&#xe986;" d="M527.183 232.050l11.652-53.319-27.719-6.003-1.412 6.179 6.356 12.006 8.474 6.003-4.59 21.363-48.552 1.412z" />
<glyph unicode="&#xe987;" d="M305.258 624.701l-6.003-41.313-9.534 1.236 9.534 40.607z" />
<glyph unicode="&#xe988;" d="M243.112 629.468l-1.412-7.239 3.178-5.826-3.178-6.532 4.943-5.65-2.648-7.415 2.648-7.415-2.648-4.767-4.767 1.059-1.589 38.488z" />
<glyph unicode="&#xe989;" d="M652.888 751.995c-13.187-26.655-42.102-41.719-71.503-37.252-33.015 4.767-62.323 31.426-54.731 67.619 4.9 28.999 28.205 51.372 57.379 55.084 10.063 1.589 4.943-6.886-2.119-7.945h-1.236c-17.736-5.047-31.786-18.608-37.458-36.154s-2.217-36.765 9.209-51.239c27.542-30.19 87.040-22.599 90.394 24.011 2.973 17.46-4.822 34.998-19.774 44.491-22.775 11.123-58.086 4.237-61.087-25.070-1.182-6.732-0.385-13.663 2.295-19.95 3.531-6.532 29.131-35.31 35.31-6.356 1.412 6.179 3.354 15.713-1.942 21.010-9.181 9.357-13.771-4.414-13.418-12.182s-14.477-8.651-14.654-4.061c0 16.596 17.655 38.665 35.31 27.012 22.246-13.771 7.768-44.138-13.418-49.964-13.081-3.059-26.794 1.198-35.843 11.127s-12.020 23.976-7.765 36.719c5.908 14.586 17.514 26.129 32.132 31.956 10.598 4.65 22.366 5.944 33.721 3.708 16.32-1.885 30.691-11.618 38.499-26.072s8.067-31.81 0.696-46.491v0z" />
<glyph unicode="&#xe98a;" d="M642.825 765.236c-3.354-46.61-62.852-54.201-90.394-24.011-11.426 14.473-14.881 33.692-9.209 51.239s19.721 31.107 37.458 36.154l-4.061-7.062 4.061-1.589c-14.619-5.827-26.225-17.37-32.132-31.956-4.255-12.742-1.284-26.79 7.765-36.719s22.762-14.186 35.843-11.127c21.186 5.826 35.31 36.193 13.418 49.964-18.714 11.652-35.31-10.417-35.31-27.012 0-4.59 14.83-1.589 14.654 4.061s4.237 21.539 13.418 12.182c5.297-5.297 3.354-14.83 1.942-21.010-6.709-28.778-32.309 0-35.31 6.356-2.68 6.288-3.477 13.218-2.295 19.95 3.001 29.308 38.312 36.193 61.087 25.070 14.683-9.681 22.184-27.182 19.068-44.491v0z" />
<glyph unicode="&#xe98b;" d="M618.108 526.538l-9.71-20.303-88.099-20.303-62.323-37.782 37.959 41.313 0.177 1.059 81.214 21.363 33.898 18.361 3.354 6.356 1.236-3.708z" />
<glyph unicode="&#xe98c;" d="M486.047 376.469l-8.651-14.124-6.356 1.942 9.357 9.71-24.541-7.415 1.236 6.886 22.952 3.001-21.363 6.886 4.414 6.709z" />
<glyph unicode="&#xe98d;" d="M513.969 946.215c277.332 0 502.154-224.822 502.154-502.154s-224.822-502.154-502.154-502.154c-277.332 0-502.154 224.822-502.154 502.154s224.822 502.154 502.154 502.154z" />
<glyph unicode="&#xe98e;" d="M512 949.76c277.114 0 501.76-224.646 501.76-501.76s-224.646-501.76-501.76-501.76c-277.114 0-501.76 224.646-501.76 501.76s224.646 501.76 501.76 501.76z" />
<glyph unicode="&#xe98f;" d="M425.326 420.698h-86.227c-38.030 0-68.858-30.828-68.858-68.858v-133.993h135.234v153.776l60.236 89.46-40.385-40.385z" />
<glyph unicode="&#xe990;" d="M748.523 451.094h-86.227l-70.496 70.496c3.993-10.279 9.126-20.132 15.349-29.374l81.201-120.593v-153.776h69.478v16.206l7.134-16.206h52.419v164.39c0 38.030-30.828 68.858-68.858 68.858z" />
<glyph unicode="&#xe991;" d="M355.538 566.298c-18.353-7.657-31.259-25.768-31.259-46.899v-17.51c0-21.125 12.906-39.241 31.259-46.894 18.353 7.652 31.259 25.763 31.259 46.894v17.51c0 21.13-12.906 39.241-31.259 46.899z" />
<glyph unicode="&#xe992;" d="M707.891 566.298c-18.353-7.657-31.254-25.768-31.254-46.899v-17.51c0-21.125 12.901-39.241 31.254-46.894 18.353 7.652 31.254 25.763 31.254 46.894v17.51c0 21.13-12.901 39.241-31.254 46.899z" />
<glyph unicode="&#xe993;" d="M512.159 692.416c6.848 0 12.407 5.554 12.407 12.407v73.811c0 6.853-5.559 12.407-12.407 12.407-6.853 0-12.407-5.554-12.407-12.407v-73.811c0-6.853 5.554-12.407 12.407-12.407z" />
<glyph unicode="&#xe994;" d="M424.318 667.559c2.423-2.423 5.598-3.63 8.772-3.63s6.354 1.212 8.772 3.635c4.846 4.846 4.842 12.702-0.005 17.544l-29.684 29.66c-4.851 4.846-12.702 4.842-17.549-0.005-4.842-4.851-4.837-12.702 0.010-17.549l29.684-29.655z" />
<glyph unicode="&#xe995;" d="M589.386 661.971c3.174 0 6.354 1.212 8.777 3.64l31.555 31.584c4.846 4.846 4.842 12.702-0.005 17.544-4.846 4.846-12.702 4.842-17.549-0.005l-31.56-31.584c-4.842-4.846-4.837-12.702 0.010-17.549 2.423-2.418 5.598-3.63 8.772-3.63z" />
<glyph unicode="&#xe996;" d="M748.523 463.501h-10.013c8.171 10.652 13.042 23.961 13.042 38.388v17.51c0 34.855-28.351 63.207-63.202 63.207s-63.202-28.351-63.202-63.202v-13.614l-93.342 93.337c-5.176 5.181-12.794 6.843-19.633 4.376-6.833 2.467-14.452 0.805-19.633-4.376l-93.337-93.337v13.614c-0.005 34.85-28.356 63.202-63.207 63.202s-63.202-28.351-63.202-63.202v-17.51c0-14.433 4.871-27.741 13.042-38.393h-10.013c-44.81 0-81.264-36.455-81.264-81.264v-164.39c0-6.853 5.554-12.407 12.407-12.407h52.419c1.241 0 2.438 0.189 3.567 0.528 1.129-0.339 2.326-0.528 3.567-0.528h138.956c6.853 0 12.407 5.554 12.407 12.407v42.183c0 6.853-5.554 12.407-12.407 12.407s-12.407-5.554-12.407-12.407v-29.776h-114.142v141.369c0 6.853-5.554 12.407-12.407 12.407s-12.407-5.554-12.407-12.407v-141.369h-34.739v151.983c0 31.128 25.322 56.451 56.451 56.451h86.227c3.417 0 6.504 1.381 8.748 3.611 0.010 0.010 0.019 0.015 0.024 0.024l128.871 128.866c-0.843-25.763-8.859-50.582-23.311-72.042l-81.197-120.593c-1.381-2.045-2.118-4.459-2.118-6.93v-13.58c0-6.853 5.559-12.407 12.407-12.407 6.853 0 12.407 5.554 12.407 12.407v9.795l79.084 117.452c6.043 8.971 11.113 18.455 15.208 28.293 4.1-9.838 9.165-19.323 15.208-28.293l79.084-117.452v-149.991c0-6.853 5.554-12.407 12.407-12.407h138.956c1.241 0 2.438 0.189 3.567 0.528 1.129-0.339 2.326-0.528 3.567-0.528h52.419c6.853 0 12.407 5.554 12.407 12.407v164.39c0 44.81-36.455 81.264-81.264 81.264zM297.609 501.889v17.51c0 21.169 17.219 38.393 38.388 38.393s38.388-17.224 38.388-38.388v-17.51c0-21.169-17.219-38.393-38.388-38.393s-38.388 17.224-38.388 38.388zM649.962 519.404c0 21.164 17.219 38.388 38.388 38.388s38.388-17.224 38.388-38.388v-17.51c0-21.169-17.219-38.393-38.388-38.393s-38.388 17.224-38.388 38.388v17.515zM804.974 230.254h-34.739v91.81c0 6.853-5.554 12.407-12.407 12.407s-12.407-5.554-12.407-12.407v-91.81h-114.142v141.369c0 2.472-0.737 4.885-2.113 6.93l-81.201 120.593c-14.452 21.46-22.463 46.273-23.311 72.042l128.871-128.866c0.165-0.165 0.315-0.305 0.465-0.426 2.2-1.987 5.108-3.213 8.307-3.213h86.227c31.128 0 56.451-25.322 56.451-56.451v-151.978z" />
<glyph unicode="&#xe997;" d="M757.828 384.035c-3.262 0-6.465-1.328-8.772-3.635s-3.635-5.51-3.635-8.772c0-3.262 1.328-6.465 3.635-8.772s5.51-3.635 8.772-3.635c3.262 0 6.465 1.328 8.772 3.635s3.635 5.51 3.635 8.772c0 3.262-1.328 6.451-3.635 8.772-2.307 2.307-5.51 3.635-8.772 3.635z" />
<glyph unicode="&#xe998;" d="M405.475 318.342c-3.262 0-6.465-1.328-8.772-3.635s-3.635-5.51-3.635-8.772c0-3.262 1.328-6.465 3.635-8.772s5.51-3.635 8.772-3.635c3.262 0 6.465 1.328 8.772 3.635s3.635 5.51 3.635 8.772c0 3.262-1.328 6.465-3.635 8.772s-5.51 3.635-8.772 3.635z" />
<glyph unicode="&#xe999;" d="M512 949.76c277.114 0 501.76-224.646 501.76-501.76s-224.646-501.76-501.76-501.76c-277.114 0-501.76 224.646-501.76 501.76s224.646 501.76 501.76 501.76z" />
<glyph unicode="&#xe99a;" d="M589.558 501.696l-77.507 108.844-0.48 0.48c-14.547 14.547-30.923 26.152-48.387 34.814-43.182-2.723-85.585-20.577-118.586-53.573-71.937-71.942-71.937-188.574 0-260.51l4.821-4.821 242.346-155.773c3.842 12.189 0.939 26.047-8.722 35.709l-53.233 53.233 0.45 0.455 53.238-53.233c13.828-13.828 36.243-13.828 50.071 0 13.828 13.823 13.828 36.243 0 50.071 13.828-13.828 36.248-13.828 50.076 0s13.828 36.248 0 50.071c13.828-13.823 36.248-13.823 50.071 0.005 13.828 13.828 13.828 36.243 0 50.071l-144.158 144.158z" />
<glyph unicode="&#xe99b;" d="M786.659 594.889c-4.386 5.535-9.122 10.88-14.237 15.996-71.937 71.937-188.574 71.937-260.51 0l-88.057-88.057c-16.465-16.465-16.465-43.167 0-59.632 16.47-16.465 43.167-16.465 59.632 0l38.571 38.571h2.428l55.656 55.656c55.846 55.846 138.623 68.33 206.518 37.467z" />
<glyph unicode="&#xe99c;" d="M636.257 534.317l-28.59-23.819c6.624 3.497 12.754 7.983 18.144 13.373l10.446 10.446z" />
<glyph unicode="&#xe99d;" d="M607.667 510.498l28.59 23.819-10.446-10.446c-5.39-5.39-11.52-9.876-18.144-13.373l-16.875-14.058 150.752-150.752 6.075-20.117 24.803 24.803c66.821 66.821 71.557 172.208 14.237 244.515-67.9 30.858-150.672 18.379-206.518-37.467l-55.656-55.656h47.953c12.394 0 24.468 3.052 35.229 8.732z" />
<glyph unicode="&#xe99e;" d="M444.835 235.171l-22.046-22.041c-13.823-13.828-13.823-36.248 0-50.071 13.828-13.828 36.248-13.828 50.076 0l22.041 22.041c13.828 13.823 13.828 36.243 0 50.071s-36.243 13.828-50.071 0z" />
<glyph unicode="&#xe99f;" d="M394.76 285.241l-22.041-22.041c-13.828-13.828-13.828-36.243 0-50.071s36.248-13.828 50.071 0l22.046 22.041c13.823 13.828 13.823 36.243 0 50.071-13.828 13.828-36.248 13.828-50.076 0z" />
<glyph unicode="&#xe9a0;" d="M344.689 335.317l-22.041-22.041c-13.828-13.828-13.828-36.248 0-50.076 13.823-13.823 36.243-13.823 50.071 0l22.041 22.046c13.828 13.823 13.828 36.243 0 50.071s-36.248 13.828-50.071 0z" />
<glyph unicode="&#xe9a1;" d="M294.613 385.388l-22.041-22.041c-13.828-13.828-13.828-36.243 0-50.071s36.248-13.828 50.076 0l22.041 22.041c13.823 13.828 13.823 36.243 0 50.071-13.828 13.828-36.248 13.828-50.076 0z" />
<glyph unicode="&#xe9a2;" d="M773.481 624.168c-3.372 0-6.659-1.359-9.052-3.752-2.378-2.378-3.737-5.665-3.737-9.042 0-3.362 1.359-6.664 3.737-9.042 2.393-2.378 5.68-3.747 9.052-3.747 3.367 0 6.654 1.369 9.047 3.747 2.378 2.378 3.732 5.68 3.732 9.042 0 3.377-1.354 6.664-3.732 9.042-2.393 2.393-5.68 3.752-9.047 3.752z" />
<glyph unicode="&#xe9a3;" d="M479.74 322.958c-3.377 0-6.664-1.359-9.052-3.747-2.378-2.378-3.737-5.67-3.737-9.042 0-3.367 1.359-6.664 3.737-9.042 2.388-2.383 5.675-3.752 9.052-3.752 3.367 0 6.649 1.369 9.042 3.752 2.378 2.378 3.737 5.675 3.737 9.042 0 3.377-1.359 6.664-3.737 9.042-2.388 2.388-5.675 3.747-9.042 3.747z" />
<glyph unicode="&#xe9a4;" d="M813.506 577.944c-3.492 6.14-11.305 8.283-17.44 4.796-6.145-3.492-8.288-11.3-4.796-17.44 37.987-66.806 26.522-151.472-27.895-205.884l-9.696-9.696c-2.343 6.15-5.97 11.915-10.915 16.86l-131.414 131.409c8.597 4.226 16.535 9.871 23.509 16.84l25.203 25.208c4.991 4.991 4.991 13.093 0 18.084-4.996 4.996-13.093 4.996-18.089 0l-25.203-25.203c-11.845-11.84-27.586-18.364-44.331-18.364h-50.381c-3.392 0-6.644-1.349-9.047-3.747l-38.571-38.566c-11.45-11.455-30.088-11.455-41.543 0-11.455 11.45-11.455 30.088 0 41.543l88.057 88.057c53.813 53.813 137.829 65.647 204.3 28.775 6.175-3.422 13.963-1.194 17.385 4.986 3.427 6.175 1.199 13.963-4.981 17.39-36.663 20.332-79.855 28.47-121.633 22.905-39.101-5.21-74.889-21.576-104.223-47.553-36.033 31.947-81.913 49.416-130.485 49.416-52.619 0-102.090-20.492-139.297-57.699s-57.699-86.679-57.699-139.302c0-52.619 20.492-102.090 57.699-139.297l4.821-4.821c0.839-0.839 1.768-1.524 2.753-2.078 0.854-11.065 5.495-21.891 13.938-30.333 9.397-9.397 21.736-14.093 34.080-14.093 0.639 0 1.284 0.020 1.923 0.045-0.025-0.649-0.050-1.294-0.050-1.943 0-12.874 5.016-24.978 14.118-34.080 9.397-9.397 21.736-14.098 34.080-14.098 0.639 0 1.284 0.025 1.923 0.050-0.025-0.649-0.045-1.294-0.045-1.948 0-12.874 5.011-24.973 14.118-34.080 9.397-9.392 21.736-14.093 34.080-14.093 0.649 0 1.294 0.020 1.943 0.045-0.52-12.979 4.161-26.132 14.048-36.023 9.102-9.102 21.206-14.118 34.080-14.118s24.978 5.016 34.080 14.118l17.874 17.874 24.144-24.139c9.102-9.107 21.206-14.118 34.080-14.118s24.978 5.011 34.080 14.113c10.011 10.011 14.687 23.364 14.033 36.498 0.804-0.040 1.609-0.065 2.413-0.065 12.344 0 24.688 4.701 34.085 14.098 9.881 9.881 14.557 23.025 14.043 36.003 0.649-0.025 1.299-0.050 1.948-0.050 12.874 0 24.978 5.016 34.080 14.118 9.881 9.886 14.562 23.030 14.048 36.003 0.644-0.025 1.294-0.045 1.943-0.045 12.874 0 24.978 5.011 34.080 14.113 4.626 4.626 8.103 9.966 10.451 15.666 1.249 0.604 2.418 1.414 3.452 2.448l24.803 24.798c62.53 62.53 75.703 159.829 32.042 236.617zM297.61 315.695c-6.045 0-11.72 2.353-15.996 6.624-4.271 4.276-6.624 9.951-6.624 15.996 0 6.040 2.353 11.72 6.629 15.991l22.036 22.041c4.271 4.271 9.951 6.624 15.996 6.624 6.040 0 11.72-2.353 15.991-6.624 8.822-8.817 8.822-23.165 0-31.987l-22.041-22.041c-4.271-4.271-9.951-6.624-15.991-6.624zM331.69 272.248c-4.271 4.271-6.624 9.951-6.624 15.991s2.353 11.72 6.624 15.991l22.041 22.041c0 0 0 0 0 0.005 4.271 4.271 9.951 6.619 15.991 6.619 6.045 0 11.725-2.348 15.996-6.624 8.817-8.817 8.817-23.165 0-31.982l-22.041-22.041c-8.822-8.817-23.17-8.817-31.987 0zM381.761 222.172c-4.271 4.271-6.624 9.951-6.624 15.996 0 6.040 2.353 11.72 6.624 15.991l22.046 22.041c4.271 4.271 9.946 6.624 15.991 6.624 6.040 0 11.72-2.353 15.991-6.624 8.817-8.817 8.817-23.165 0-31.987l-22.041-22.041c-8.817-8.817-23.165-8.817-31.987 0zM463.819 172.096c-4.271-4.271-9.946-6.624-15.991-6.624-6.040 0-11.72 2.353-15.991 6.624-8.817 8.822-8.817 23.17 0 31.987l22.041 22.041c0 0 0 0 0 0.005 4.271 4.271 9.951 6.624 15.991 6.624s11.72-2.353 15.991-6.629c4.276-4.271 6.629-9.951 6.629-15.991s-2.353-11.72-6.629-15.991l-22.041-22.046zM724.674 316.509c-4.271-4.276-9.951-6.629-15.996-6.629-6.040 0-11.72 2.353-15.991 6.629l-53.233 53.233c-0.005 0.005-0.005 0.005-0.010 0.005l-50.066 50.071c-4.996 4.991-13.093 4.991-18.089 0-4.996-4.996-4.996-13.093 0-18.089l103.309-103.309c8.817-8.817 8.817-23.165 0-31.987-4.271-4.271-9.951-6.624-15.991-6.624-6.045 0-11.72 2.353-15.991 6.624l-103.314 103.309c-4.996 4.996-13.088 4.996-18.084 0s-4.996-13.093 0-18.089l50.061-50.061c0.005 0 0.005-0.010 0.010-0.010l53.238-53.238c8.817-8.817 8.817-23.165 0-31.987-8.817-8.817-23.17-8.817-31.987 0l-53.238 53.238c-0.984 0.984-2.088 1.768-3.267 2.363l-15.182 15.182c-4.996 4.996-13.093 4.996-18.089 0-4.996-4.991-4.996-13.088 0-18.084l71.232-71.237c8.822-8.817 8.822-23.165 0-31.987-4.271-4.271-9.951-6.624-15.991-6.624s-11.72 2.353-15.991 6.624l-27.106 27.106c2.063 5.42 3.157 11.22 3.157 17.195 0 12.874-5.016 24.978-14.118 34.080s-21.206 14.118-34.080 14.118c-0.649 0-1.299-0.025-1.943-0.050 0.51 12.979-4.166 26.122-14.048 36.003-9.107 9.102-21.211 14.118-34.080 14.118-0.654 0-1.299-0.020-1.948-0.045 0.515 12.974-4.161 26.117-14.048 36.003-9.102 9.102-21.206 14.113-34.080 14.113-0.649 0-1.299-0.020-1.943-0.045 0.515 12.974-4.166 26.117-14.048 36.003-18.793 18.793-49.372 18.793-68.165 0l-22.036-22.041c-2.783-2.778-5.14-5.82-7.099-9.042-30.044 31.912-46.534 73.395-46.534 117.412 0 45.79 17.834 88.837 50.211 121.213s75.424 50.206 121.213 50.206c41.608 0 80.954-14.727 112.086-41.713l-78.596-78.596c-10.381-10.381-16.096-24.179-16.096-38.861 0-14.677 5.715-28.48 16.096-38.861 10.711-10.711 24.788-16.071 38.861-16.071s28.145 5.36 38.861 16.071l34.824 34.829h45.085c3.722 0 7.403 0.255 11.040 0.704l141.191-141.191c8.817-8.817 8.817-23.165 0-31.982z" />
<glyph unicode="&#xe9a5;" d="M291.834 6.842c-4.174 0-7.707 3.176-8.063 7.414l-31.034 360.879-102.796-44.055c-41.822-17.909-68.832-58.899-68.832-104.356v-211.77c0-4.483-3.636-8.111-8.111-8.111s-8.111 3.628-8.111 8.111v211.77c0 51.976 30.867 98.796 78.661 119.295l113.109 48.475c2.392 1.006 5.149 0.824 7.366-0.507 2.242-1.331 3.699-3.667 3.913-6.257l32.008-372.079c0.372-4.459-2.923-8.404-7.382-8.776-0.246-0.016-0.491-0.032-0.729-0.032v0z" />
<glyph unicode="&#xe9a6;" d="M256 387.048l44.863 18.343 30.799-49.785h62.922l35.421 51.186 44.439-21.472-10.77-74.647-58.129 36.827-8.42-5.953-2.541-29.417-61.729 4.38-2.175 30.121-14.352-0.912-49.727-38.772z" />
<glyph unicode="&#xe9a7;" d="M438.131 6.842c-0.238 0-0.467 0.016-0.713 0.032-4.459 0.372-7.77 4.317-7.382 8.776l32.024 372.079c0.23 2.59 1.687 4.927 3.913 6.257 2.234 1.315 4.982 1.513 7.366 0.507l113.109-48.475c47.778-20.499 78.661-67.303 78.661-119.295v-73.885h154.091c4.475 0 8.111-3.636 8.111-8.111v-129.774c0-4.483-3.636-8.111-8.111-8.111h-210.883c-49.188 0-89.22 40.032-89.22 89.22v48.665c0 4.475 3.636 8.111 8.111 8.111s8.111-3.636 8.111-8.111v-48.665c0-40.246 32.752-72.998 72.998-72.998h202.772v113.552h-154.107c-4.475 0-8.111 3.628-8.111 8.111v81.996c0 45.473-27.010 86.448-68.832 104.372l-102.796 44.063-31.050-360.887c-0.372-4.253-3.905-7.43-8.063-7.43v0z" />
<glyph unicode="&#xe9a8;" d="M956.095 23.063h-104.451c-4.475 0-8.111 3.628-8.111 8.111 0 4.475 3.636 8.111 8.111 8.111h104.451c14.408 0 27.24 9.679 31.192 23.517l18.139 63.461c0.697 2.463 0.23 5.061-1.331 7.105-1.537 2.059-3.905 3.232-6.471 3.232h-145.98c-4.475 0-8.111 3.628-8.111 8.111 0 4.475 3.636 8.111 8.111 8.111h145.98c7.723 0 14.796-3.541 19.43-9.687 4.642-6.147 6.083-13.917 3.96-21.347l-18.131-63.461c-5.925-20.745-25.18-35.263-46.788-35.263v0z" />
<glyph unicode="&#xe9a9;" d="M973.244 209.614h-196.531c-31.612 0-51.081 34.566-34.661 61.592l100.491 165.513h64.887l100.475-165.513c16.42-27.026-3.050-61.592-34.661-61.592z" />
<glyph unicode="&#xe9aa;" d="M973.244 201.503h-196.531c-17.822 0-33.671 9.259-42.4 24.784-8.745 15.525-8.436 33.885 0.808 49.117l100.483 165.513c1.473 2.416 4.103 3.897 6.939 3.897h64.887c2.836 0 5.465-1.481 6.947-3.897l100.475-165.513c9.228-15.232 9.552-33.592 0.808-49.117s-24.586-24.784-42.416-24.784v0zM847.105 428.608l-98.115-161.624c-6.178-10.154-6.376-22.384-0.547-32.745 5.822-10.352 16.396-16.531 28.269-16.531h196.531c11.873 0 22.448 6.178 28.269 16.531 5.814 10.36 5.632 22.59-0.547 32.745l-98.107 161.624h-55.754z" />
<glyph unicode="&#xe9ab;" d="M907.414 428.608h-64.887c-4.475 0-8.111 3.628-8.111 8.111v32.444c0 4.475 3.636 8.111 8.111 8.111h64.887c4.475 0 8.111-3.636 8.111-8.111v-32.444c0-4.483-3.62-8.111-8.111-8.111zM850.638 444.83h48.665v16.222h-48.665v-16.222z" />
<glyph unicode="&#xe9ac;" d="M887.137 274.501h-36.499c-4.475 0-8.111 3.628-8.111 8.111 0 4.475 3.636 8.111 8.111 8.111h36.499c6.701 0 12.166 5.465 12.166 12.166 0 6.693-5.465 12.166-12.166 12.166h-24.333c-15.651 0-28.388 12.729-28.388 28.388 0 15.651 12.752 28.388 28.388 28.388h36.499c4.475 0 8.111-3.636 8.111-8.111 0-4.483-3.636-8.111-8.111-8.111h-36.499c-6.701 0-12.166-5.473-12.166-12.166 0-6.701 5.465-12.166 12.166-12.166h24.333c15.651 0 28.388-12.737 28.388-28.388 0-15.659-12.737-28.388-28.388-28.388z" />
<glyph unicode="&#xe9ad;" d="M874.97 363.721c-4.475 0-8.111 3.628-8.111 8.111v16.222c0 4.475 3.636 8.111 8.111 8.111s8.111-3.636 8.111-8.111v-16.222c0-4.483-3.62-8.111-8.111-8.111z" />
<glyph unicode="&#xe9ae;" d="M874.97 250.168c-4.475 0-8.111 3.628-8.111 8.111v16.222c0 4.475 3.636 8.111 8.111 8.111s8.111-3.636 8.111-8.111v-16.222c0-4.483-3.62-8.111-8.111-8.111z" />
<glyph unicode="&#xe9af;" d="M907.43 469.162h-64.887l-32.444 97.331h129.774z" />
<glyph unicode="&#xe9b0;" d="M907.414 461.052h-64.887c-3.485 0-6.582 2.234-7.707 5.545l-32.444 97.331c-0.824 2.463-0.404 5.188 1.125 7.303 1.521 2.123 3.952 3.374 6.566 3.374h129.774c2.614 0 5.061-1.251 6.566-3.374 1.545-2.115 1.949-4.84 1.125-7.303l-32.444-97.331c-1.069-3.311-4.19-5.545-7.675-5.545v0zM848.38 477.273h53.196l27.042 81.109h-107.279l27.042-81.109z" />
<glyph unicode="&#xe9b1;" d="M874.97 509.717c-4.475 0-8.111 3.628-8.111 8.111v48.665c0 4.475 3.636 8.111 8.111 8.111s8.111-3.636 8.111-8.111v-48.665c0-4.483-3.62-8.111-8.111-8.111z" />
<glyph unicode="&#xe9b2;" d="M364.99 412.386c-85.069 0-158.099 56.364-179.984 137.917-26.115 0.808-47.121 22.321-47.121 48.634s21.006 47.818 47.121 48.634c21.885 81.545 94.915 137.917 179.984 137.917s158.099-56.372 179.984-137.917c26.115-0.816 47.121-22.321 47.121-48.634s-21.006-47.826-47.121-48.634c-21.885-81.552-94.915-137.917-179.984-137.917zM190.186 566.834c3.873 0 8.111-2.44 8.966-6.154 17.861-77.766 86.059-132.071 165.838-132.071s147.976 54.305 165.853 132.071c0.919 4.024 4.57 6.836 8.887 6.234 2.091-0.293 2.891-0.42 3.699-0.42 17.893 0 32.444 14.55 32.444 32.444s-14.55 32.444-32.444 32.444c-0.745 0-1.473-0.135-2.186-0.23-4.111-0.554-9.457 1.933-10.416 6.036-17.861 77.766-86.059 132.079-165.838 132.079s-147.976-54.313-165.853-132.079c-0.919-4.008-4.768-6.669-8.808-6.25-2.289 0.309-3.018 0.444-3.778 0.444-17.893 0-32.444-14.55-32.444-32.444s14.55-32.444 32.444-32.444c0.824 0 1.64 0.143 2.416 0.253 0.404 0.055 0.8 0.087 1.22 0.087z" />
<glyph unicode="&#xe9b3;" d="M202.772 615.159h-8.111v105.442h48.665v-64.887c0-22.408-18.154-40.554-40.554-40.554z" />
<glyph unicode="&#xe9b4;" d="M202.772 607.048h-8.111c-4.475 0-8.111 3.628-8.111 8.111v105.442c0 4.475 3.636 8.111 8.111 8.111h48.665c4.475 0 8.111-3.636 8.111-8.111v-64.887c0-26.836-21.838-48.665-48.665-48.665zM202.772 712.489v-89.22c17.893 0 32.444 14.55 32.444 32.444v56.776h-32.444z" />
<glyph unicode="&#xe9b5;" d="M486.653 721.408v-65.695c0-22.408 18.154-40.554 40.554-40.554h8.111v128.721c-12.8-12.578-29.814-20.57-48.665-22.471z" />
<glyph unicode="&#xe9b6;" d="M535.319 607.048h-8.111c-26.828 0-48.665 21.83-48.665 48.665v65.695c0 4.166 3.145 7.659 7.303 8.063 16.689 1.687 32.246 8.855 43.778 20.182 2.352 2.297 5.822 2.962 8.824 1.687 3.018-1.267 4.982-4.206 4.982-7.461v-128.721c0-4.483-3.636-8.111-8.111-8.111zM494.764 714.366v-58.653c0-17.893 14.55-32.444 32.444-32.444v103.834c-9.766-6.25-20.8-10.606-32.444-12.737z" />
<glyph unicode="&#xe9b7;" d="M364.99 509.749c-22.844 0-45.679 8.689-63.089 26.083-3.16 3.16-3.16 8.309 0 11.469 3.168 3.16 8.309 3.16 11.469 0 28.451-28.451 74.764-28.451 103.224 0 3.16 3.16 8.301 3.16 11.469 0 3.16-3.16 3.16-8.309 0-11.469-17.394-17.394-40.23-26.083-63.073-26.083z" />
<glyph unicode="&#xe9b8;" d="M478.543 720.6h-283.881c0 67.184 54.471 121.663 121.663 121.663h84.436c35.216 0 69.996 7.636 101.972 22.4l56.919 26.265v-89.22c0-44.808-36.317-81.109-81.109-81.109z" />
<glyph unicode="&#xe9b9;" d="M478.543 712.489h-283.881c-4.475 0-8.111 3.628-8.111 8.111 0 71.549 58.218 129.774 129.774 129.774h84.436c33.822 0 67.905 7.493 98.558 21.655l56.927 26.257c2.527 1.141 5.45 0.974 7.77-0.531 2.337-1.497 3.747-4.055 3.747-6.828v-89.22c0-49.188-40.032-89.22-89.22-89.22zM203.065 728.711h275.477c40.246 0 72.998 32.752 72.998 72.998v76.547l-45.402-20.958c-32.784-15.152-69.22-23.145-105.378-23.145h-84.436c-59.873 0-109.093-46.606-113.259-105.442z" />
<glyph unicode="&#xe9ba;" d="M405.545 62.596l-40.554-47.644-40.554 47.644 24.333 244.349h32.444z" />
<glyph unicode="&#xe9bb;" d="M364.99 6.842c-2.368 0-4.642 1.038-6.178 2.851l-40.554 47.659c-1.434 1.687-2.115 3.865-1.885 6.067l24.333 244.333c0.404 4.15 3.897 7.303 8.063 7.303h32.444c4.166 0 7.659-3.152 8.063-7.303l24.333-244.333c0.23-2.202-0.451-4.396-1.885-6.067l-40.554-47.659c-1.537-1.814-3.81-2.851-6.178-2.851v0zM332.855 65.234l32.135-37.774 32.135 37.758-23.279 233.6h-17.743l-23.248-233.584z" />
<glyph unicode="&#xe9bc;" d="M202.772 6.842c-4.475 0-8.111 3.628-8.111 8.111v162.218c0 4.475 3.636 8.111 8.111 8.111s8.111-3.636 8.111-8.111v-162.218c0-4.483-3.636-8.111-8.111-8.111z" />
<glyph unicode="&#xe9bd;" d="M527.208 6.842c-4.475 0-8.111 3.628-8.111 8.111v162.218c0 4.475 3.636 8.111 8.111 8.111s8.111-3.636 8.111-8.111v-162.218c0-4.483-3.636-8.111-8.111-8.111z" />
<glyph unicode="&#xe9be;" d="M266.606 298.834c-1.133 0-2.289 0.238-3.343 0.729-2.677 1.196-4.491 3.762-4.737 6.701l-6.749 80.087c-0.309 3.485 1.687 6.764 4.879 8.143l40.253 17.244c3.628 1.505 7.786 0.293 9.941-2.97l32.444-48.665c2.4-3.604 1.56-8.451-1.933-11.034l-65.941-48.665c-1.426-1.038-3.113-1.568-4.816-1.568zM268.42 381.867l5.046-59.794 48.048 35.461-24.412 36.634-28.681-12.301z" />
<glyph unicode="&#xe9bf;" d="M463.248 298.834c-1.703 0-3.406 0.531-4.824 1.584l-65.806 48.665c-3.493 2.582-4.333 7.43-1.933 11.034l32.444 48.665c2.17 3.248 6.329 4.475 9.941 2.97l40.253-17.244c3.208-1.378 5.172-4.673 4.879-8.158l-6.891-80.087c-0.261-2.939-2.067-5.489-4.737-6.701-1.077-0.491-2.194-0.729-3.327-0.729zM408.467 357.535l47.929-35.461 5.149 59.794-28.665 12.301-24.412-36.634z" />
<glyph unicode="&#xe9c0;" d="M381.212 298.834h-32.444c-13.418 0-24.333 10.915-24.333 24.333v16.222c0 13.41 10.915 24.333 24.333 24.333h32.444c13.418 0 24.333-10.923 24.333-24.333v-16.222c0-13.418-10.915-24.333-24.333-24.333zM348.768 347.499c-4.459 0-8.111-3.651-8.111-8.111v-16.222c0-4.467 3.651-8.111 8.111-8.111h32.444c4.459 0 8.111 3.644 8.111 8.111v16.222c0 4.459-3.651 8.111-8.111 8.111h-32.444z" />
<glyph unicode="&#xe9c1;" d="M336.507 341.559c-0.15 0-0.309 0-0.444 0.016-2.543 0.15-4.895 1.481-6.305 3.604l-36.404 54.598c-0.895 1.331-1.362 2.891-1.362 4.499v28.562c0 2.677 1.331 5.196 3.556 6.701 2.218 1.529 5.053 1.798 7.525 0.863 39.857-15.659 83.992-15.659 123.85 0 2.471 0.95 5.323 0.665 7.533-0.863 2.218-1.505 3.549-4.024 3.549-6.701v-28.562c0-1.608-0.467-3.168-1.362-4.499l-36.404-54.598c-1.426-2.123-3.747-3.469-6.305-3.604-2.907-0.23-5.030 0.943-6.669 2.907-0.974 1.117-3.002 3.018-6.051 3.018h-32.444c-3.050 0-5.093-1.901-6.051-3.050-1.537-1.838-3.81-2.891-6.21-2.891zM308.214 406.723l30.273-45.402c3.192 1.552 6.693 2.4 10.281 2.4h32.444c3.588 0 7.105-0.848 10.281-2.384l30.273 45.402v14.598c-36.84-11.873-76.713-11.873-113.552 0v-14.614z" />
<glyph unicode="&#xe9c2;" d="M178.44 420.497h-121.663c-4.475 0-8.111 3.628-8.111 8.111 0 4.475 3.636 8.111 8.111 8.111h121.663c4.475 0 8.111-3.636 8.111-8.111 0-4.483-3.636-8.111-8.111-8.111z" />
<glyph unicode="&#xe9c3;" d="M24.333 420.497h-16.222c-4.475 0-8.111 3.628-8.111 8.111 0 4.475 3.636 8.111 8.111 8.111h16.222c4.475 0 8.111-3.636 8.111-8.111 0-4.483-3.636-8.111-8.111-8.111z" />
<glyph unicode="&#xe9c4;" d="M843.533 671.935h-64.887c-4.475 0-8.111 3.628-8.111 8.111 0 4.475 3.636 8.111 8.111 8.111h64.887c4.475 0 8.111-3.636 8.111-8.111 0-4.483-3.636-8.111-8.111-8.111z" />
<glyph unicode="&#xe9c5;" d="M811.089 639.491c-4.475 0-8.111 3.628-8.111 8.111v64.887c0 4.475 3.636 8.111 8.111 8.111s8.111-3.636 8.111-8.111v-64.887c0-4.483-3.636-8.111-8.111-8.111z" />
<glyph unicode="&#xe9c6;" d="M746.202 590.826h-64.887c-4.475 0-8.111 3.628-8.111 8.111 0 4.475 3.636 8.111 8.111 8.111h64.887c4.475 0 8.111-3.636 8.111-8.111 0-4.483-3.636-8.111-8.111-8.111z" />
<glyph unicode="&#xe9c7;" d="M713.758 558.382c-4.475 0-8.111 3.628-8.111 8.111v64.887c0 4.475 3.636 8.111 8.111 8.111s8.111-3.636 8.111-8.111v-64.887c0-4.483-3.636-8.111-8.111-8.111z" />
<glyph unicode="&#xe9c8;" d="M512 949.76c277.114 0 501.76-224.646 501.76-501.76s-224.646-501.76-501.76-501.76c-277.114 0-501.76 224.646-501.76 501.76s224.646 501.76 501.76 501.76z" />
<glyph unicode="&#xe9c9;" d="M598.555 648.4v6c0 13.256-10.748 24-24 24-13.256 0-24-10.744-24-24v-6c0-62.963-51.042-114-114-114h-57.755c-24.37 0-46.955 7.655-65.484 20.681 21.070-29.794 51.933-52.195 87.863-62.47v-132.848h77.137v132.094c69.155 18.464 120.239 81.652 120.239 156.544z" />
<glyph unicode="&#xe9ca;" d="M400.4 359.763h63.305v-206.963h-63.305z" />
<glyph unicode="&#xe9cb;" d="M424.4 630.616c-16.153-7.092-27.445-23.217-27.445-41.991v-8.339c0-18.773 11.292-34.898 27.445-41.991 16.158 7.092 27.445 23.217 27.445 41.991v8.339c0 18.773-11.288 34.898-27.445 41.991z" />
<glyph unicode="&#xe9cc;" d="M633.050 423.653c-16.158-7.092-27.445-23.222-27.445-41.995v-8.334c0-18.773 11.287-34.903 27.445-41.991 16.153 7.087 27.445 23.217 27.445 41.991v8.334c0 18.773-11.292 34.903-27.445 41.995z" />
<glyph unicode="&#xe9cd;" d="M575.75 564.723c-5.405 3.834-12.895 2.564-16.73-2.841l-0.234-0.328c-3.834-5.405-2.564-12.895 2.841-16.73 2.109-1.495 4.533-2.212 6.938-2.212 3.755 0 7.458 1.758 9.797 5.053l0.23 0.328c3.839 5.405 2.564 12.895-2.841 16.73z" />
<glyph unicode="&#xe9ce;" d="M531.523 532.384c-16.669-13.673-35.616-23.409-56.306-28.936-6.403-1.711-10.209-8.283-8.498-14.686 1.434-5.367 6.286-8.911 11.588-8.911 1.022 0 2.067 0.131 3.103 0.412 24.019 6.412 46.003 17.705 65.334 33.567 5.128 4.2 5.873 11.761 1.669 16.884-4.2 5.128-11.766 5.873-16.889 1.669z" />
<glyph unicode="&#xe9cf;" d="M686.961 164.8c-3.155 0-6.253-1.284-8.484-3.516s-3.516-5.33-3.516-8.484c0-3.155 1.284-6.253 3.516-8.484s5.33-3.516 8.484-3.516c3.155 0 6.253 1.284 8.484 3.516s3.516 5.33 3.516 8.484c0 3.155-1.284 6.253-3.516 8.484s-5.33 3.516-8.484 3.516z" />
<glyph unicode="&#xe9d0;" d="M406.002 306.4c-6.628 0-12-5.372-12-12v-141.6c0-6.628 5.372-12 12-12s12 5.372 12 12v141.6c0 6.628-5.372 12-12 12z" />
<glyph unicode="&#xe9d1;" d="M764 617.884c6.628 0 12 5.372 12 12v14.916c0 6.628-5.372 12-12 12s-12-5.372-12-12v-14.916c0-6.628 5.372-12 12-12z" />
<glyph unicode="&#xe9d2;" d="M764 546.4c6.628 0 12 5.372 12 12v14.916c0 6.628-5.372 12-12 12s-12-5.372-12-12v-14.916c0-6.628 5.372-12 12-12z" />
<glyph unicode="&#xe9d3;" d="M792.284 589.6h14.916c6.628 0 12 5.372 12 12s-5.372 12-12 12h-14.916c-6.628 0-12-5.372-12-12s5.372-12 12-12z" />
<glyph unicode="&#xe9d4;" d="M720.8 589.6h14.916c6.628 0 12 5.372 12 12s-5.372 12-12 12h-14.916c-6.628 0-12-5.372-12-12s5.372-12 12-12z" />
<glyph unicode="&#xe9d5;" d="M468.645 716.284c6.628 0 12 5.372 12 12v14.916c0 6.628-5.372 12-12 12-6.623 0-12-5.372-12-12v-14.916c0-6.628 5.377-12 12-12z" />
<glyph unicode="&#xe9d6;" d="M468.645 644.8c6.628 0 12 5.372 12 12v14.916c0 6.628-5.372 12-12 12-6.623 0-12-5.372-12-12v-14.916c0-6.628 5.377-12 12-12z" />
<glyph unicode="&#xe9d7;" d="M496.93 688h14.916c6.628 0 12 5.372 12 12s-5.372 12-12 12h-14.916c-6.623 0-12-5.372-12-12s5.377-12 12-12z" />
<glyph unicode="&#xe9d8;" d="M425.445 688h14.92c6.623 0 12 5.372 12 12s-5.377 12-12 12h-14.92c-6.623 0-12-5.372-12-12s5.377-12 12-12z" />
<glyph unicode="&#xe9d9;" d="M505.902 361.783c-20.077 20.55-32.456 48.656-32.456 79.655v6c0 13.256-10.744 24-24 24-13.252 0-24-10.744-24-24v-6c0-73.908 49.748-136.411 117.516-155.789v-132.848h59.484v132.848c-41.236 11.794-75.802 39.553-96.544 76.134z" />
<glyph unicode="&#xe9da;" d="M807.2 441.437v6c0 13.256-10.744 24-24 24s-24-10.744-24-24v-6c0-62.963-51.037-114-114-114h-57.755c-31.959 0-60.844 13.158-81.544 34.345 20.742-36.577 55.308-64.341 96.544-76.134v-132.848h84.516v132.094c69.155 18.464 120.239 81.652 120.239 156.544z" />
<glyph unicode="&#xe9db;" d="M783.2 483.437c-19.852 0-36-16.153-36-36v-6c0-50.325-36.642-92.227-84.642-100.495 6.267 9.248 9.938 20.395 9.938 32.381v8.339c0 31.894-25.95 57.844-57.848 57.844-31.894 0-57.844-25.95-57.844-57.844v-8.339c0-11.681 3.492-22.556 9.473-31.664-46.116 9.778-80.831 50.794-80.831 99.778v6c0 19.847-16.148 36-36 36s-36-16.153-36-36v-6c0-24.356 4.959-47.911 14.517-69.675h-81.652v120.848c0 5.358-3.548 10.069-8.7 11.536-64.064 18.323-108.811 77.644-108.811 144.253v6c0 6.619 5.381 12 12 12s12-5.381 12-12v-6c0-69.478 56.522-126 126-126h57.755c69.473 0 126 56.522 126 126v6c0 6.619 5.381 12 12 12 6.614 0 12-5.381 12-12v-6c0-18.445-3.323-36.464-9.881-53.55-2.372-6.188 0.722-13.13 6.909-15.502 6.183-2.377 13.13 0.722 15.502 6.909 7.608 19.837 11.47 40.748 11.47 62.142v6c0 19.852-16.153 36-36 36-19.852 0-36-16.148-36-36v-6c0-50.325-36.642-92.222-84.642-100.491 6.267 9.244 9.933 20.391 9.933 32.377v8.334c0 31.898-25.95 57.848-57.844 57.848-31.898 0-57.844-25.95-57.844-57.848v-8.334c0-11.681 3.488-22.556 9.469-31.659-46.116 9.773-80.827 50.789-80.827 99.773v6c0 19.852-16.148 36-36 36s-36-16.148-36-36v-6c0-38.527 12.384-75.056 35.817-105.637 20.813-27.164 49.57-47.85 81.698-58.945v-124.055c0-6.623 5.372-12 12-12h2.189v-194.963c0-6.628 5.372-12 12-12s12 5.372 12 12v194.963h80.353c2.62-4.078 5.423-8.072 8.409-11.967 0.792-1.036 1.622-2.044 2.437-3.061v-179.934c0-6.628 5.372-12 12-12s12 5.372 12 12v155.414c16.35-13.706 35.142-24.412 55.256-31.359v-124.055c0-6.628 5.372-12 12-12s12 5.372 12 12v132.848c0 5.358-3.548 10.069-8.7 11.536-64.069 18.323-108.816 77.639-108.816 144.253v6c0 6.619 5.386 12 12 12 6.619 0 12-5.381 12-12v-6c0-69.478 56.527-126 126-126h57.755c69.478 0 126 56.522 126 126v6c0 6.619 5.381 12 12 12s12-5.381 12-12v-6c0-67.842-45.783-127.448-111.333-144.952-5.25-1.402-8.906-6.159-8.906-11.592v-86.892c0-6.628 5.372-12 12-12s12 5.372 12 12v77.93c71.25 23.147 120.239 89.916 120.239 165.506v6c0 19.847-16.148 36-36 36zM372.158 588.625c0 18.661 15.178 33.844 33.844 33.844 18.661 0 33.844-15.183 33.844-33.844v-8.339c0-18.661-15.183-33.844-33.844-33.844-18.666 0-33.844 15.183-33.844 33.844v8.339zM580.803 381.662c0 18.661 15.183 33.844 33.844 33.844 18.666 0 33.848-15.183 33.848-33.844v-8.339c0-18.661-15.183-33.844-33.848-33.844-18.661 0-33.844 15.183-33.844 33.844v8.339z" />
<glyph unicode="&#xe9dc;" d="M221.066 537.759l51.943 51.934c7.869 7.877 12.287 18.549 12.287 29.68v73.459c0 23.189 18.779 41.967 41.967 41.967h73.443c11.131 0 21.803 4.418 29.68 12.287l51.934 51.943c16.385 16.385 42.959 16.385 59.361 0l51.934-51.943c7.877-7.869 18.549-12.287 29.68-12.287h73.459c23.189 0 41.967-18.779 41.967-41.967v-73.459c0-11.131 4.418-21.803 12.287-29.68l51.943-51.934c16.385-16.385 16.385-42.959 0-59.361l-51.943-51.934c-7.869-7.877-12.287-18.549-12.287-29.68v-73.443c0-23.189-18.779-41.967-41.967-41.967h-73.459c-11.131 0-21.803-4.418-29.68-12.287l-51.934-51.943c-16.385-16.385-42.959-16.385-59.361 0l-51.934 51.959c-7.877 7.869-18.549 12.287-29.68 12.287h-73.443c-23.189 0-41.967 18.779-41.967 41.967v73.443c0 11.131-4.418 21.803-12.287 29.68l-51.943 51.934c-16.385 16.385-16.385 42.959 0 59.344z" />
<glyph unicode="&#xe9dd;" d="M682.667 508.952c0-94.257-76.41-170.667-170.667-170.667s-170.667 76.41-170.667 170.667c0 94.257 76.41 170.667 170.667 170.667s170.667-76.41 170.667-170.667z" />
<glyph unicode="&#xe9de;" d="M512 196.496c-12.893 0-25.803 4.902-35.623 14.721l-51.934 51.943c-6.352 6.344-14.779 9.836-23.738 9.836h-73.443c-27.77 0-50.361 22.59-50.361 50.361v73.459c0 8.959-3.492 17.393-9.836 23.738l-51.943 51.934c-9.5 9.5-14.738 22.164-14.738 35.607 0 13.459 5.238 26.107 14.738 35.607l51.943 51.934c6.344 6.344 9.836 14.795 9.836 23.754v73.443c0 27.77 22.59 50.361 50.361 50.361h73.443c8.959 0 17.385 3.492 23.738 9.836l51.934 51.943c19.041 19.016 52.205 19.016 71.23 0l51.934-51.943c6.344-6.344 14.779-9.836 23.738-9.836h73.443c27.77 0 50.361-22.59 50.361-50.361v-73.443c0-8.959 3.492-17.41 9.836-23.754l51.943-51.934c9.5-9.5 14.738-22.148 14.738-35.607 0-13.443-5.238-26.107-14.738-35.607l-51.943-51.934c-6.344-6.344-9.836-14.779-9.836-23.738v-73.459c0-27.77-22.59-50.361-50.361-50.361h-73.443c-8.959 0-17.393-3.492-23.738-9.836l-51.934-51.943c-9.82-9.82-22.713-14.721-35.607-14.721zM327.262 726.39c-18.516 0-33.574-15.057-33.574-33.574v-73.443c0-13.443-5.238-26.098-14.754-35.623l-51.943-51.934c-6.328-6.344-9.82-14.77-9.82-23.738s3.492-17.393 9.82-23.738l51.943-51.934c9.516-9.508 14.754-22.148 14.754-35.607v-73.459c0-18.516 15.057-33.574 33.574-33.574h73.443c13.443 0 26.082-5.238 35.607-14.762l51.934-51.934c13.098-13.074 34.393-13.074 47.492 0l51.934 51.934c9.525 9.508 22.164 14.762 35.607 14.762h73.443c18.516 0 33.574 15.057 33.574 33.574v73.459c0 13.459 5.238 26.098 14.754 35.607l51.943 51.934c6.328 6.344 9.82 14.77 9.82 23.738s-3.492 17.393-9.82 23.738l-51.943 51.934c-9.516 9.525-14.754 22.18-14.754 35.623v73.443c0 18.516-15.057 33.574-33.574 33.574h-73.443c-13.443 0-26.082 5.238-35.607 14.754l-51.934 51.943c-12.689 12.689-34.803 12.689-47.492 0l-51.934-51.943c-9.525-9.5-22.164-14.754-35.607-14.754h-73.443z" />
<glyph unicode="&#xe9df;" d="M623.279 247.816c-2.23 0-4.344-0.877-5.943-2.451l-51.934-51.943c-7.016-7.016-15.197-12.451-24.090-16.197l71.123-171.68 45.426 109.672 109.672-45.426-73.746 178.041-70.508-0.016z" />
<glyph unicode="&#xe9e0;" d="M458.582 193.423l-51.934 51.943c-1.598 1.59-3.697 2.451-5.943 2.451h-70.492l-73.746-178.041 109.672 45.426 45.426-109.656 71.107 171.68c-8.877 3.746-17.074 9.164-24.090 16.197v0z" />
<glyph unicode="&#xe9e1;" d="M612.434-2.848c-3.393 0-6.459 2.049-7.754 5.189l-71.107 171.68c-1.762 4.279 0.262 9.197 4.549 10.959 4.279 1.762 9.197-0.27 10.959-4.549l63.352-152.943 37.672 90.934c1.779 4.279 6.713 6.328 10.959 4.549l90.934-37.672-65.984 159.328c-1.762 4.279 0.262 9.197 4.549 10.959 4.279 1.795 9.197-0.27 10.959-4.549l73.746-178.041c1.311-3.139 0.582-6.746-1.811-9.148-2.402-2.418-6.016-3.123-9.156-1.811l-101.91 42.213-42.221-101.893c-1.27-3.156-4.344-5.205-7.738-5.205v0z" />
<glyph unicode="&#xe9e2;" d="M411.566-2.848c-3.393 0-6.467 2.049-7.754 5.189l-42.221 101.893-101.91-42.221c-3.123-1.287-6.738-0.582-9.156 1.82-2.402 2.402-3.123 6.008-1.811 9.148l73.746 178.041c1.779 4.279 6.697 6.361 10.959 4.549 4.287-1.762 6.311-6.68 4.549-10.959l-65.984-159.328 90.934 37.672c4.262 1.762 9.197-0.27 10.959-4.549l37.672-90.934 63.352 152.943c1.762 4.279 6.713 6.328 10.959 4.549 4.287-1.762 6.311-6.68 4.549-10.959l-71.107-171.68c-1.279-3.123-4.344-5.172-7.738-5.172v0z" />
<glyph unicode="&#xe9e3;" d="M512 331.833c-97.197 0-176.262 79.066-176.262 176.262s79.066 176.262 176.262 176.262c97.197 0 176.262-79.066 176.262-176.262s-79.066-176.262-176.262-176.262zM512 667.57c-87.926 0-159.475-71.549-159.475-159.475s71.549-159.475 159.475-159.475c87.926 0 159.475 71.549 159.475 159.475s-71.549 159.475-159.475 159.475z" />
<glyph unicode="&#xe9e4;" d="M629.508 499.701c-4.631 0-8.393 3.762-8.393 8.393 0 60.164-48.951 109.115-109.115 109.115-4.631 0-8.393 3.762-8.393 8.393s3.762 8.393 8.393 8.393c69.434 0 125.902-56.467 125.902-125.902 0-4.648-3.762-8.393-8.393-8.393z" />
<glyph unicode="&#xe9e5;" d="M773.254 836.496h-67.148c-4.631 0-8.393 3.762-8.393 8.393s3.762 8.393 8.393 8.393h67.148c4.631 0 8.393-3.762 8.393-8.393s-3.762-8.393-8.393-8.393z" />
<glyph unicode="&#xe9e6;" d="M739.68 802.923c-4.631 0-8.393 3.762-8.393 8.393v67.148c0 4.631 3.762 8.393 8.393 8.393s8.393-3.762 8.393-8.393v-67.148c0-4.631-3.762-8.393-8.393-8.393z" />
<glyph unicode="&#xe9e7;" d="M873.975 752.562h-67.148c-4.631 0-8.393 3.762-8.393 8.393s3.762 8.393 8.393 8.393h67.148c4.631 0 8.393-3.762 8.393-8.393s-3.762-8.393-8.393-8.393z" />
<glyph unicode="&#xe9e8;" d="M840.402 718.988c-4.631 0-8.393 3.762-8.393 8.393v67.148c0 4.631 3.762 8.393 8.393 8.393s8.393-3.762 8.393-8.393v-67.148c0-4.631-3.762-8.393-8.393-8.393z" />
<glyph unicode="&#xe9e9;" d="M184.656 358.070h-125.902c-4.631 0-8.393 3.762-8.393 8.393s3.762 8.393 8.393 8.393h125.902c4.631 0 8.393-3.762 8.393-8.393s-3.762-8.393-8.393-8.393z" />
<glyph unicode="&#xe9ea;" d="M25.18 358.070h-16.787c-4.631 0-8.393 3.762-8.393 8.393s3.762 8.393 8.393 8.393h16.787c4.631 0 8.393-3.762 8.393-8.393s-3.762-8.393-8.393-8.393z" />
<glyph unicode="&#xe9eb;" d="M965.246 358.070h-125.902c-4.631 0-8.393 3.762-8.393 8.393s3.762 8.393 8.393 8.393h125.902c4.631 0 8.393-3.762 8.393-8.393s-3.762-8.393-8.393-8.393z" />
<glyph unicode="&#xe9ec;" d="M1015.607 358.070h-16.787c-4.631 0-8.393 3.762-8.393 8.393s3.762 8.393 8.393 8.393h16.787c4.631 0 8.393-3.762 8.393-8.393s-3.762-8.393-8.393-8.393z" />
<glyph unicode="&#xe9ed;" d="M756.793 465.459c0.009 16.725-7.624 32.533-20.725 42.926 13.817 16.279 16.917 39.1 7.948 58.472-8.978 19.38-28.393 31.773-49.738 31.755h-121.79l5.031 13.31c7.921 20.856 11.965 42.978 11.948 65.284v1.983c-0.009 16.961-6.882 33.197-19.057 45.004-12.183 11.808-28.62 18.183-45.572 17.677-34.306-1.825-61.109-30.332-60.812-64.69 0-16.271-22.865-53.659-41.389-78.594h-137.354c-8.646 0-15.651-7.004-15.651-15.651v-313.266c0-8.646 7.004-15.651 15.651-15.651h227.93c8.646 0 15.651 7.004 15.651 15.651 0 8.638-7.004 15.651-15.651 15.651h-67.188v292.314c13.258 17.546 49.301 68.148 49.301 99.537-0.41 17.467 12.978 32.175 30.402 33.415 8.507 0.262 16.76-2.934 22.873-8.856 6.105-5.921 9.555-14.070 9.555-22.576v-1.983c0.017-18.515-3.345-36.882-9.913-54.192l-13.048-34.541c-1.817-4.812-1.162-10.201 1.764-14.437 2.917-4.227 7.729-6.751 12.873-6.76h144.437c12.978 0 23.502-10.524 23.502-23.502 0-12.987-10.524-23.511-23.502-23.511-8.646 0-15.651-7.004-15.651-15.651s7.004-15.651 15.651-15.651h7.703c12.987 0 23.52-10.524 23.52-23.511s-10.533-23.511-23.52-23.511h-7.703c-8.646 0-15.651-7.004-15.651-15.651s7.004-15.651 15.651-15.651c12.978 0 23.502-10.524 23.502-23.511 0-12.978-10.524-23.502-23.502-23.502h-24.498c-8.646 0-15.651-7.013-15.651-15.651 0-8.646 7.004-15.651 15.651-15.651 12.987 0 23.511-10.524 23.511-23.511 0-12.978-10.524-23.502-23.511-23.502h-103.275c-8.646 0-15.651-7.013-15.651-15.651 0-8.646 7.004-15.651 15.651-15.651h103.275c19.79-0.026 38.044 10.629 47.764 27.86 9.729 17.24 9.397 38.376-0.847 55.301 15.721 7.039 27.214 21.074 31.031 37.878 3.808 16.803-0.515 34.419-11.659 47.555 13.092 10.384 20.725 26.183 20.734 42.891v0zM300.933 567.275h113.79v-281.956h-113.79v281.956zM347.046 376.070c-22.498 0-40.725-18.236-40.725-40.725 0-22.498 18.227-40.725 40.725-40.725 22.489 0 40.725 18.227 40.725 40.725-0.026 22.48-18.245 40.699-40.725 40.725zM347.046 325.93c-5.205 0-9.432 4.218-9.424 9.424 0 5.205 4.218 9.432 9.432 9.424 5.205 0 9.424-4.227 9.415-9.432s-4.227-9.415-9.424-9.415zM998.295 486.183c-14.402-22.751-14.402-51.764 0-74.515 14.445-22.707 19.205-50.245 13.214-76.48-5.983-26.227-22.227-48.978-45.092-63.162-22.847-14.253-35.432-40.393-32.332-67.135 3.17-26.725-4.489-53.598-21.266-74.638s-41.275-34.489-68.026-37.354c-26.769-2.908-49.45-20.987-58.271-46.419-8.742-25.45-27.301-46.341-51.546-58.017s-52.157-13.162-77.502-4.131c-25.389 8.978-53.677 2.524-72.655-16.585-18.917-19.135-44.707-29.904-71.616-29.904s-52.699 10.769-71.616 29.904c-18.978 19.118-47.275 25.572-72.655 16.585-25.345-9.031-53.249-7.537-77.493 4.14-24.236 11.668-42.803 32.559-51.546 58.009-8.803 25.441-31.493 43.528-58.262 46.445-26.751 2.865-51.249 16.314-68.026 37.354s-24.437 47.913-21.275 74.638c3.1 26.751-9.485 52.891-32.332 67.135-22.856 14.183-39.092 36.926-45.074 63.153s-1.231 53.764 13.205 76.463c14.402 22.751 14.402 51.764 0 74.515-14.445 22.699-19.205 50.236-13.223 76.472 5.991 26.236 22.227 48.978 45.1 63.162 7.345 4.559 16.996 2.297 21.546-5.048 4.559-7.345 2.297-16.996-5.048-21.555-15.764-9.773-26.952-25.45-31.074-43.528-4.131-18.087-0.847-37.066 9.109-52.707 20.9-33.013 20.9-75.118 0-108.122-9.956-15.651-13.24-34.629-9.109-52.707 4.122-18.079 15.31-33.755 31.074-43.537 33.153-20.672 51.424-58.603 46.917-97.415-2.183-18.419 3.092-36.943 14.655-51.441s28.454-23.764 46.891-25.738c38.847-4.245 71.764-30.489 84.541-67.415 6.026-17.537 18.812-31.939 35.52-39.983s35.939-9.074 53.406-2.847c36.838 13.039 77.895 3.668 105.424-24.061 13.039-13.188 30.812-20.611 49.354-20.611 18.55 0 36.323 7.424 49.354 20.611 27.537 27.729 68.585 37.1 105.424 24.061 17.467-6.227 36.699-5.197 53.406 2.847s29.502 22.445 35.528 39.983c12.777 36.926 45.694 63.17 84.541 67.415 18.437 1.974 35.319 11.24 46.882 25.738s16.847 33.022 14.664 51.441c-4.507 38.812 13.764 76.742 46.917 97.424 15.755 9.782 26.952 25.459 31.074 43.537 4.131 18.079 0.847 37.057-9.109 52.707-20.9 33.004-20.9 75.109 0 108.122 9.956 15.642 13.24 34.62 9.109 52.707-4.122 18.079-15.319 33.755-31.074 43.528-33.162 20.672-51.441 58.611-46.926 97.424 2.183 18.419-3.1 36.943-14.664 51.441-11.563 14.507-28.445 23.773-46.882 25.747-38.847 4.236-71.764 30.489-84.541 67.415-6.026 17.537-18.821 31.93-35.528 39.983-16.707 8.044-35.939 9.066-53.406 2.838-36.838-13.031-77.886-3.668-105.424 24.061-13.031 13.188-30.803 20.611-49.354 20.611-18.541 0-36.314-7.424-49.354-20.611-27.528-27.729-68.585-37.092-105.424-24.061-17.467 6.227-36.699 5.205-53.406-2.838-16.707-8.052-29.493-22.445-35.52-39.983-12.769-36.926-45.677-63.17-84.507-67.424-21.738-2.253-41.127-14.672-52.245-33.485-2.725-5.092-8.026-8.271-13.799-8.271-5.764 0-11.066 3.17-13.799 8.262-2.725 5.083-2.428 11.258 0.769 16.061 16.131 27.293 44.253 45.31 75.79 48.559 26.734 2.943 49.38 21.004 58.183 46.419 8.742 25.45 27.31 46.341 51.555 58.017 24.245 11.668 52.148 13.162 77.502 4.122 25.389-8.978 53.677-2.524 72.655 16.585 18.917 19.135 44.707 29.904 71.616 29.904s52.699-10.769 71.616-29.904c18.978-19.1 47.266-25.555 72.655-16.585 25.345 9.031 53.249 7.537 77.493-4.131 24.236-11.677 42.795-32.568 51.537-58.009 8.812-25.45 31.502-43.537 58.271-46.454 26.751-2.865 51.249-16.314 68.026-37.354s24.437-47.913 21.266-74.638c-3.1-26.742 9.493-52.882 32.341-67.135 22.865-14.183 39.1-36.934 45.083-63.162 5.991-26.236 1.231-53.773-13.214-76.472v0.026zM89.073 662.314c3.389 9.843 4.498 20.314 3.258 30.646-1.013 8.576 5.118 16.367 13.703 17.38 8.585 1.022 16.367-5.118 17.389-13.703 1.755-14.987 0.14-30.183-4.734-44.472-2.803-8.175-11.703-12.533-19.886-9.738-8.175 2.803-12.533 11.712-9.729 19.886zM819.728 616.9c-10.271 18.69-22.227 36.41-35.721 52.917-5.476 6.699-4.48 16.559 2.21 22.026s16.55 4.48 22.026-2.21c14.681-17.983 27.694-37.266 38.882-57.607 2.751-4.908 2.664-10.908-0.236-15.729-2.9-4.812-8.166-7.712-13.79-7.572-5.616 0.131-10.734 3.275-13.406 8.227l0.035-0.052zM753.37 724.332c-5.397-6.751-15.24-7.834-21.991-2.437-61.79 49.773-138.821 76.76-218.166 76.445-150.306-0.166-283.624-96.55-330.908-239.223s2.079-299.59 122.533-389.502c120.445-89.904 284.926-92.603 408.262-6.699 123.336 85.913 177.825 241.127 135.24 385.275-2.288 8.236 2.445 16.777 10.646 19.205 8.192 2.419 16.812-2.175 19.371-10.332 53.511-180.358-32.629-372.769-202.803-452.987-170.166-80.218-373.406-24.21-478.472 131.843-105.066 156.061-80.498 365.441 57.852 492.926 138.341 127.493 349.022 134.917 496 17.485 6.751-5.406 7.843-15.249 2.437-22z" />
<glyph unicode="&#xe9ee;" d="M756.793 465.459c0.009 16.725-7.624 32.533-20.725 42.926 13.817 16.279 16.917 39.1 7.948 58.472-8.978 19.38-28.393 31.773-49.738 31.755h-121.79l5.031 13.31c7.921 20.856 11.965 42.978 11.948 65.284v1.983c-0.009 16.961-6.882 33.197-19.057 45.004-12.183 11.808-28.62 18.183-45.572 17.677-34.306-1.825-61.109-30.332-60.812-64.69 0-16.271-22.865-53.659-41.389-78.594h-137.354c-8.646 0-15.651-7.004-15.651-15.651v-313.266c0-8.646 7.004-15.651 15.651-15.651h227.93c8.646 0 15.651 7.004 15.651 15.651 0 8.638-7.004 15.651-15.651 15.651h-67.188v292.314c13.258 17.546 49.301 68.148 49.301 99.537-0.41 17.467 12.978 32.175 30.402 33.415 8.507 0.262 16.76-2.934 22.873-8.856 6.105-5.921 9.555-14.070 9.555-22.576v-1.983c0.017-18.515-3.345-36.882-9.913-54.192l-13.048-34.541c-1.817-4.812-1.162-10.201 1.764-14.437 2.917-4.227 7.729-6.751 12.873-6.76h144.437c12.978 0 23.502-10.524 23.502-23.502 0-12.987-10.524-23.511-23.502-23.511-8.646 0-15.651-7.004-15.651-15.651s7.004-15.651 15.651-15.651h7.703c12.987 0 23.52-10.524 23.52-23.511s-10.533-23.511-23.52-23.511h-7.703c-8.646 0-15.651-7.004-15.651-15.651s7.004-15.651 15.651-15.651c12.978 0 23.502-10.524 23.502-23.511 0-12.978-10.524-23.502-23.502-23.502h-24.498c-8.646 0-15.651-7.013-15.651-15.651 0-8.646 7.004-15.651 15.651-15.651 12.987 0 23.511-10.524 23.511-23.511 0-12.978-10.524-23.502-23.511-23.502h-103.275c-8.646 0-15.651-7.013-15.651-15.651 0-8.646 7.004-15.651 15.651-15.651h103.275c19.79-0.026 38.044 10.629 47.764 27.86 9.729 17.24 9.397 38.376-0.847 55.301 15.721 7.039 27.214 21.074 31.031 37.878 3.808 16.803-0.515 34.419-11.659 47.555 13.092 10.384 20.725 26.183 20.734 42.891v0z" />
<glyph unicode="&#xe9ef;" d="M300.933 567.275h113.79v-281.956h-113.79z" />
<glyph unicode="&#xe9f0;" d="M290.783 592.527c-6.127-6.118-16.061-6.118-22.188 0-6.118 6.127-6.118 16.061 0 22.188l36.315 36.315c6.127 6.127 16.053 6.136 22.188 0.009 6.127-6.127 6.127-16.061 0-22.188l-36.315-36.324zM4.578 350.645l235.939 235.982c6.127 6.127 16.061 6.127 22.188 0s6.136-16.061 0.009-22.188l-224.849-224.884 354.792-354.705 448.070 448.079c12.315 12.245 19.352 28.814 19.615 46.179l3.842 224.884c0.070 3.142-0.061 6.284-0.376 9.409-0.044 0.516-0.070 1.015-0.070 1.523-0.053 0.324-0.105 0.832-0.158 1.33-0.306 2.687-0.683 5.374-1.225 7.947-0.096 0.473-0.079 0.954-0.131 1.427-5.47 28.516-22.433 53.532-46.906 69.173l-0.814 0.525c-0.28-0.621-0.569-1.234-0.84-1.847-0.972-2.249-1.794-4.481-2.591-6.74-0.368-1.077-0.779-2.153-1.103-3.221-0.998-3.23-1.794-6.53-2.372-9.856l-0.096-0.551c3.711-2.556 7.168-5.444 10.337-8.648 11.772-11.755 19.309-27.081 21.444-43.58v-0.21c0.114-0.858 0.193-1.698 0.28-2.565l0.175-1.567c0-0.341 0.053-0.674 0.079-1.015v-0.525c0.166-2.652 0.193-5.322 0.070-7.982v-0.849c-0.131-2.503-0.42-4.98-0.797-7.44-0.079-0.499-0.166-0.998-0.263-1.497-0.376-2.206-0.858-4.385-1.435-6.547-0.131-0.464-0.245-0.893-0.376-1.392-0.691-2.416-1.505-4.788-2.433-7.107l-0.053-0.149v-0.394c-0.228-0.551-0.551-1.050-0.788-1.593-2.705-6.407-6.293-12.403-10.67-17.812l-0.053-0.053c-1.619-1.961-3.379-3.939-5.147-5.698-29.864-29.934-78.337-29.987-108.263-0.123-29.934 29.864-29.987 78.337-0.123 108.263 3.807 3.799 8.018 7.168 12.551 10.066 0.333 4.245 0.797 8.543 1.505 12.954 0.665 3.904 1.47 7.781 2.416 11.65 0.245 1.007 0.578 2.004 0.84 3.002 0.744 2.827 1.479 5.646 2.372 8.455l-197.085-3.44c-17.348-0.324-33.891-7.352-46.162-19.624l-121.829-121.891c-6.127-6.127-16.061-6.136-22.188-0.009s-6.127 16.061 0 22.188l121.838 121.891c18.004 18.022 42.311 28.35 67.772 28.797l211.291 3.694c9.672 18.013 21.917 34.512 36.341 48.998 27.991 28.796 64.219 48.236 103.694 55.65 5.584 1.033 11.282-1.024 14.915-5.383s4.621-10.346 2.6-15.641c-2.022-5.295-6.757-9.094-12.368-9.917-33.033-6.328-63.3-22.705-86.67-46.888-14.302-14.232-26.074-30.801-34.801-48.989-5.672-11.947-9.707-24.613-12-37.646-0.937-5.768-1.462-11.597-1.567-17.435-0.508-17.497 4.096-34.766 13.243-49.689 2.923-4.63 6.354-8.91 10.214-12.788l0.184-0.158c2.039-2.022 4.193-3.921 6.46-5.689 0.726-0.578 1.488-1.103 2.232-1.654 1.716-1.243 3.484-2.442 5.313-3.58 0.814-0.499 1.628-0.998 2.46-1.462 2.302-1.287 4.691-2.486 7.168-3.589 0.35-0.149 0.674-0.341 1.033-0.481h0.079c0.14 0.219 0.315 0.429 0.455 0.656 1.383 2.197 2.582 4.516 3.589 6.915 0.91 2.267 1.646 4.604 2.179 6.985 0.175 0.805 0.219 1.628 0.368 2.442 0.236 1.435 0.473 2.871 0.569 4.333-0.49 0.219-0.893 0.534-1.383 0.761-1.926 0.928-3.799 1.961-5.611 3.098-0.796 0.508-1.619 0.972-2.381 1.505-2.46 1.698-4.761 3.606-6.888 5.707-11.799 12.534-17.899 29.374-16.875 46.556 0.096 4.683 0.525 9.357 1.304 13.978 2.967 16.306 9.094 31.877 18.031 45.829 6.311 10.451 13.908 20.070 22.608 28.63 20.096 20.726 46.013 34.862 74.319 40.534 24.91 4.088 46.407-1.453 60.543-15.58 19.098-19.098 17.926-46.066 15.589-60.446-5.663-28.376-19.816-54.363-40.595-74.495-9.663-9.611-20.525-17.934-32.315-24.779 0.114-0.963 0.219-1.926 0.245-2.906 0.385-4.131 0.534-8.28 0.446-12.429l-0.166-9.856c17.654 8.674 33.742 20.228 47.606 34.179 24.184 23.37 40.56 53.646 46.888 86.67 2.845 15.982 1.899 32.403-2.766 47.956-2.608 8.254 1.969 17.068 10.223 19.685 8.263 2.617 17.077-1.961 19.685-10.223 6.153-20.263 7.457-41.689 3.799-62.547-7.405-39.484-26.845-75.702-55.641-103.702-19.877-20.070-43.676-35.825-69.917-46.284-0.14-0.053-0.289-0.070-0.438-0.123l-3.107-180.508c-0.385-25.497-10.713-49.829-28.788-67.816l-459.168-459.168c-6.118-6.127-16.053-6.127-22.179 0l-376.972 376.875c-6.127 6.127-6.127 16.061 0 22.188h-0.018zM771.851 666.234c-1.672 1.077-3.221 2.311-4.823 3.475-1.103 0.796-2.249 1.549-3.317 2.398-3.335 2.591-6.512 5.383-9.505 8.368-3.212 3.265-6.206 6.731-8.963 10.389-0.797 1.033-1.523 2.101-2.284 3.16-2.013 2.827-3.886 5.751-5.619 8.779-0.639 1.103-1.295 2.179-1.891 3.3-2.197 4.079-4.131 8.298-5.803 12.621-0.105 0.289-0.175 0.595-0.289 0.902-1.514 4.131-2.801 8.35-3.851 12.63-0.14 0.551-0.368 1.077-0.499 1.628-9.199-15.212-8.595-34.398 1.523-49.007s27.877-21.917 45.348-18.652l-0.026 0.009zM887.606 751.232c6.223 4.298 12.053 9.12 17.427 14.433 16.149 15.466 27.23 35.466 31.781 57.365 1.392 8.42 2.363 23.947-6.827 33.155-9.182 9.217-24.779 8.228-33.243 6.818-21.891-4.578-41.891-15.667-57.357-31.816-2.932-2.95-5.707-6.048-8.315-9.287 0.368-0.236 0.779-0.446 1.147-0.674 25.751-16.499 45.243-41.138 55.387-69.996v0zM466.354 430.68l33.926 33.926c-19.011 32.088-27.396 58.862-2.687 83.597 23.3 23.3 57.225 22.888 86.451 0.201l16.298 16.289c6.775 6.074 17.12 5.794 23.562-0.639 6.433-6.442 6.713-16.788 0.639-23.562l-17.12-17.12c8.796-11.842 15.116-25.348 18.573-39.694 1.059-4.63 0.14-9.488-2.53-13.409s-6.845-6.565-11.536-7.282l-4.070-0.648c-8.648-1.4-16.945 3.991-19.177 12.455-1.934 7.466-4.726 14.687-8.315 21.514l-32.446-32.446c19.825-32.823 27.422-59.431 3.387-83.457-23.685-23.685-56.228-24.446-87.291-0.455l-8.919-8.919c-6.775-6.074-17.129-5.794-23.562 0.639-6.433 6.442-6.713 16.788-0.639 23.562l9.050 9.050c-12.096 15.492-20.455 33.567-24.438 52.814-0.963 4.788 0.166 9.759 3.098 13.672s7.387 6.389 12.254 6.818l4.175 0.359c8.648 0.77 16.499-5.085 18.214-13.602 2.214-11.939 6.652-23.361 13.085-33.663h0.018zM530.127 494.453l27.781 27.781c-8.14 5.926-19.309 5.322-26.775-1.435-6.748-6.731-6.95-14.293-1.024-26.346h0.018zM490.249 406.103c8.333-6.092 19.807-5.479 27.431 1.479 6.783 6.775 6.696 14.179 0.604 26.538l-28.035-28.018zM230.643 398.47c-2.95-2.941-4.604-6.932-4.604-11.090 0-4.166 1.654-8.158 4.604-11.098l198.705-198.696c6.197-5.584 15.685-5.339 21.584 0.56 5.908 5.899 6.153 15.387 0.569 21.593l-198.705 198.731c-2.941 2.941-6.932 4.595-11.090 4.595s-8.149-1.654-11.090-4.595h0.026zM174.004 341.831c-2.941-2.941-4.595-6.932-4.595-11.090s1.654-8.149 4.595-11.090l198.705-198.696c3.939-4.079 9.768-5.716 15.256-4.28 5.479 1.435 9.768 5.716 11.204 11.195 1.435 5.488-0.201 11.317-4.271 15.256l-198.74 198.705c-2.932 2.95-6.923 4.604-11.090 4.604-4.158 0-8.149-1.654-11.090-4.604h0.026zM968.026 894.199c6.127-6.127 16.061-6.127 22.188 0s6.127 16.061 0 22.188c-10.547 10.495-23.142 18.713-36.998 24.114-8.061 3.204-17.19-0.735-20.385-8.796-3.204-8.053 0.735-17.182 8.796-20.385 9.873-3.834 18.853-9.654 26.372-17.12h0.026z" />
<glyph unicode="&#xe9f1;" d="M466.354 430.68l33.926 33.926c-19.011 32.088-27.396 58.862-2.687 83.597 23.3 23.3 57.225 22.888 86.451 0.201l16.298 16.289c6.775 6.074 17.12 5.794 23.562-0.639 6.433-6.442 6.713-16.788 0.639-23.562l-17.12-17.12c8.796-11.842 15.116-25.348 18.573-39.694 1.059-4.63 0.14-9.488-2.53-13.409s-6.845-6.565-11.536-7.282l-4.070-0.648c-8.648-1.4-16.945 3.991-19.177 12.455-1.934 7.466-4.726 14.687-8.315 21.514l-32.446-32.446c19.825-32.823 27.422-59.431 3.387-83.457-23.685-23.685-56.228-24.446-87.291-0.455l-8.919-8.919c-6.775-6.074-17.129-5.794-23.562 0.639-6.433 6.442-6.713 16.788-0.639 23.562l9.050 9.050c-12.096 15.492-20.455 33.567-24.438 52.814-0.963 4.788 0.166 9.759 3.098 13.672s7.387 6.389 12.254 6.818l4.175 0.359c8.648 0.77 16.499-5.085 18.214-13.602 2.214-11.939 6.652-23.361 13.085-33.663h0.018z" />
<glyph unicode="&#xe9f2;" d="M530.127 494.453l27.781 27.781c-8.14 5.926-19.309 5.322-26.775-1.435-6.748-6.731-6.95-14.293-1.024-26.346h0.018z" />
<glyph unicode="&#xe9f3;" d="M490.249 406.103c8.333-6.092 19.807-5.479 27.431 1.479 6.783 6.775 6.696 14.179 0.604 26.538l-28.035-28.018z" />
<glyph unicode="&#xe9f4;" d="M770.947 420.683l-15.137-64.665h126.837l-14.191 67.601-48.77-59.841z" />
<glyph unicode="&#xe9f5;" d="M154.421 419.54l-15.528-66.483 130.401 2.945-17.357 67.235-48.762-60.585z" />
<glyph unicode="&#xe9f6;" d="M463.254 305.794l-15.137-64.665h126.837l-14.191 67.601-48.77-59.841z" />
<glyph unicode="&#xe9f7;" d="M219.429 29.413h-162.54c-4.484 0-8.127 3.643-8.127 8.127s3.643 8.127 8.127 8.127h162.54c4.484 0 8.127-3.643 8.127-8.127s-3.643-8.127-8.127-8.127z" />
</font>
</defs>
</svg>
